<?xml version="1.0" encoding="UTF-8"?>
<svg xmlns="http://www.w3.org/2000/svg" width="800" height="520">
	<rect width="800" height="520" fill="#eb0000"/>
	<path d="M355.677,426.185L369.672,426c-24-4.25,3.25-48.5,11.25-67.5s21.25-22.25,21.25-22.25 l-28.75-6.75c8.75,13-14.25,57.75-21.75,77s-25,13.5-49,14s-29,16.5-29,16.5c10.25-10.75,39.25-10.25,39.25-10.25l30.75-0.406 l6.25-5.594L355.677,426.185z" fill="#fc0"/>
	<path d="M401.928,438.685l13.994-0.185c-24-4.25,3.25-48.5,11.25-67.5 s21.25-22.25,21.25-22.25l-28.75-6.75c8.75,13-14.25,57.75-21.75,77s-25,13.5-49,14s-29,16.5-29,16.5 c10.25-10.75,39.25-10.25,39.25-10.25l30.75-0.406l6.25-5.594L401.928,438.685z" fill="#fc0"/>
	<path d="M316.366,73.522l-28.598,9.648c-15.286,4.354-21.668,19.645-23.041,23.451 c-23.132,10.163-27.447,22.312-27.62,22.83l-1.526,4.58l4.318-2.159c10.452-5.226,29.974-4.43,36.613-3.979 c-0.067,0.505-0.138,1.009-0.138,1.533c0,7.586,6.877,17.051,14.646,27.741c5.186,7.136,10.548,14.515,14.195,21.811 c1.167,2.333,1.613,5.403,1.613,9.019c0,5.342-0.973,11.877-2.032,18.99c-1.439,9.662-3.062,20.557-3.062,32.114 c0,21.94,5.847,46.271,29.893,69.099c27.575,26.18,65.325,36.895,92.138,41.273c28.975,4.732,51.811,3.287,52.038,3.271 l0.098-0.006l0.097-0.017c0.27-0.044,27.129-4.276,41.534,11.382c12.211,13.272,42.299,43.306,57.919,35.55 c9.443-4.689,11.468-21.237,6.188-50.592l-0.02-0.104l-0.029-0.102c-0.099-0.339-10.137-34.313-30.842-71.251 c-19.184-34.225-51.725-78.1-97.805-92.761c-46.966-14.944-68.882-23.004-83.029-34.244 c-14.624-11.617-19.696-26.316-24.949-52.905l-2.166-13.003l-25.696-11.42L316.366,73.522z" fill="#eb0000"/>
	<path d="M307.213,101.139c-1.579-0.694,4.186,3.331,5.659,4.284 c14.697,9.506,15.279,34.73,1.3,56.338c-2.469,3.816-5.227,7.265-8.176,10.303c0,0-0.108-0.259-1.793-2.928 c-3.06-4.846-6.54-9.634-9.945-14.32c-8.18-11.257-15.906-18.889-13.402-24.972l5.023-5.484l-6.673-0.268 c-0.975-0.097-21.251-2.032-35.475,2.09c3.286-4.17,10.049-10.541,23.396-16.261l0.846-0.363l0.275-0.88 c0.055-0.173,5.601-17.384,20.708-21.69l50.466-0.238c0.294,1.764,1.611,11.662,1.611,11.662 c10.952,55.447,22.792,62.273,110.7,90.244c44.813,14.259,76.662,57.266,95.488,90.833l-43.549-42.073 c0,0,51.266,58.693,67.758,94.263L530.672,293c0,0,45.402,50.391,47.826,61.445c1.913,8.724,1.998,15.847,1.998,21.433 c0,13.345-3.35,18.469-6.823,20.193c-10.776,5.352-34.546-14.403-53.196-34.676c-15.623-16.981-42.993-12.961-45.019-12.637 c-2.515,0.151-90.152,4.886-141.076-43.459c-35.205-33.422-29.67-70.587-25.629-97.724c1.684-11.311,1.196-27.338,1.196-27.338 S357.004,123.027,307.213,101.139z" fill="#fc0"/>
	<path d="M526.743,338.445c0.005,0.053-0.001,0.089-0.002,0.14 c-31.545-2.068-41.754-30.26-42.179-31.487l-0.454-1.311l-1.388-0.036c-14.942-0.365-25.714-4-31.151-10.512 c-3.496-4.188-4.012-8.528-4.012-10.722c0-0.85,0.077-1.377,0.089-1.449l0.347-2.221l-2.244-0.096 c-70.673,0.251-92.041-62.622-92.041-62.622c0.126,0.653,3.242,16.171,16.154,32.248c11.692,14.558,33.961,32.148,73.707,34.24 c0.021,2.864,0.719,8.09,4.857,13.099c6.092,7.371,17.171,11.373,32.863,11.961c2.529,6.021,15.337,32.158,47.325,33.072 l1.87,0.054l0.178-1.863c0.166-1.75,3.541-43.476-43.495-96.517C487.168,244.423,521.564,285.891,526.743,338.445z" fill="#eb0000"/>
	<path d="M300.672,98.25c0,3.038-2.462,5.5-5.5,5.5s-5.5-2.462-5.5-5.5s2.462-5.5,5.5-5.5 S300.672,95.212,300.672,98.25z" fill="#eb0000"/>
	<path d="M309.419,82.24l-24.421-0.024l0.03-30.09l-0.009,0 c2.994,7.167,9.184,11.657,9.184,11.657c-2.455-0.002-4.449,1.986-4.451,4.443c-0.003,2.457,1.986,4.448,4.442,4.451 c2.234,0.002,4.083-1.643,4.402-3.787l-0.038,0.035c10.178,10.661,14.308-2.187,14.308-2.187 c-0.717,1.497-2.246,2.53-4.017,2.527c-2.455-0.002-4.445-1.995-4.442-4.451c0.002-2.456,1.995-4.445,4.451-4.442 c0.755,0.001,1.467,0.19,2.09,0.524l-0.091-0.062c-1.385-0.754-2.325-2.224-2.323-3.913c0.001-2.456,1.995-4.445,4.451-4.443 l0.027,0c2.455,0.002,4.443,1.996,4.441,4.452c-0.002,1.688-0.944,3.155-2.331,3.908l-0.091,0.061 c0.623-0.333,1.335-0.521,2.09-0.52c2.457,0.003,4.446,1.996,4.443,4.452c-0.002,2.456-1.996,4.444-4.452,4.442 c-1.77-0.001-3.297-1.038-4.012-2.535c0,0,4.104,12.856,14.305,2.213l-0.039-0.034c0.314,2.146,2.161,3.795,4.395,3.796 c2.457,0.003,4.449-1.988,4.452-4.443c0.002-2.455-1.988-4.448-4.442-4.451c0,0,6.197-4.477,9.207-11.638h-0.011l-0.029,30.091 l-24.422-0.024L309.419,82.24z" fill="#fc0"/>
</svg>