<?xml version="1.0" encoding="UTF-8"?>
<svg xmlns="http://www.w3.org/2000/svg" width="750" height="500"><path d="m0.5,0.5h749v499H0.5z" stroke="#000" fill="#ffffff"/><path d="M693.656-2.5e-5,600.344,62.2187c-4.8753,3.2502-5.1207-3.8911-5.5938-10.1875-0.1668-2.2125-0.8371-4.4276-2.1562-6.4062-4.0289-6.0432-12.2064-7.6541-18.25-3.625-2.6773,1.7849-4.4063,4.3754-5.3126,7.2187l-5.4062,16.9375c-6.5795,20.6411-20.1108,33.9489-41.2812,48.0626l-52,34.6562c-4.8754,3.2503-5.1207-3.8598-5.5938-10.1562-0.1667-2.2126-0.8684-4.4277-2.1875-6.4063-4.0288-6.0432-12.175-7.6852-18.2187-3.6563-2.6774,1.7849-4.4375,4.4068-5.3438,7.25l-5.375,16.9063c-6.5795,20.641-20.1107,33.9488-41.2812,48.0625L210.313,322.218c-4.8753,3.2502-5.0894-3.86-5.5625-10.1563-0.1668-2.2126-0.8684-4.4277-2.1875-6.4063-4.0288-6.0432-12.2063-7.6852-18.25-3.6562-2.6774,1.7849-4.4062,4.4067-5.3125,7.25l-5.4062,16.9062c-6.5795,20.6411-20.1108,33.9489-41.2813,48.0626l-52,34.6874c-4.87529,3.2504-5.1207-3.8912-5.59379-10.1874-0.1668-2.2127-0.8372-4.4276-2.15621-6.4063-4.02889-6.0433-12.2064-7.654-18.25-3.625-2.6774,1.7849-4.4062,4.3755-5.3125,7.2187L43.5942,412.843C37.014,433.484,23.4838,446.792,2.313,460.905L0,462.437,0,500l56.3442,0,45.6251-30.4383c21.1705-14.1137,38.6662-21.4904,60.25-19.625l17.6874,1.5313c2.9733,0.2568,6.0727-0.3402,8.75-2.125,6.0437-4.0291,7.6852-12.2066,3.6563-18.25-1.319-1.9785-3.0843-3.4639-5.0625-4.4688-5.63-2.8583-12.1253-5.8121-7.25-9.0625l52-34.6563c21.1705-14.1136,38.635-21.4904,60.2188-19.625l17.7187,1.5313c2.9732,0.2569,6.0414-0.3402,8.7187-2.125,6.0437-4.029,7.6852-12.2067,3.6563-18.25-1.319-1.9785-3.0843-3.4638-5.0625-4.4687-5.63-2.8583-12.1253-5.8123-7.25-9.0626l182-121.345c21.1706-14.1137,38.6662-21.4905,60.25-19.625l17.6875,1.5313c2.9732,0.257,6.0727-0.3402,8.75-2.125,6.0437-4.0291,7.6539-12.2067,3.625-18.25-1.319-1.9786-3.0843-3.4639-5.0625-4.4688-5.63-2.8583-12.1253-5.8123-7.25-9.0625l52.0312-34.6875c21.1705-14.1136,38.635-21.4905,60.2187-19.625l17.6876,1.5313c2.9732,0.2569,6.0726-0.3402,8.75-2.125,6.0436-4.02923,7.6852-12.2067,3.6562-18.25-1.3189-1.9787-3.0842-3.464-5.0625-4.4688-5.63-2.8583-12.1254-5.81229-7.25-9.0625l49.968-33.3112,0-37.5617z" fill="#da121a"/><path d="m750,500-56.3442,0-45.6251-30.4383c-21.1705-14.1137-38.6662-21.4904-60.25-19.625l-17.6874,1.5313c-2.9733,0.2568-6.0727-0.3402-8.75-2.125-6.0437-4.0291-7.6852-12.2066-3.6563-18.25,1.319-1.9785,3.0843-3.4639,5.0625-4.4688,5.63-2.8583,12.1253-5.8121,7.25-9.0625l-52-34.6563c-21.1705-14.1136-38.635-21.4904-60.2188-19.625l-17.7187,1.5313c-2.9732,0.2569-6.0414-0.3402-8.7187-2.125-6.0437-4.029-7.6852-12.2067-3.6563-18.25,1.319-1.9785,3.0843-3.4638,5.0625-4.4687,5.63-2.8583,12.1253-5.8123,7.25-9.0626l-182-121.345c-21.1706-14.1137-38.6662-21.4905-60.25-19.625l-17.6875,1.5313c-2.9732,0.257-6.0727-0.3402-8.75-2.125-6.0437-4.0291-7.6539-12.2067-3.625-18.25,1.319-1.9786,3.0843-3.4639,5.0625-4.4688,5.63-2.8583,12.1253-5.8123,7.25-9.0625L127.968,122.873C106.798,108.759,89.333,101.382,67.7493,103.248l-17.6876,1.5313c-2.9732,0.2569-6.0726-0.3402-8.75-2.125-6.0436-4.02923-7.6852-12.2067-3.6562-18.25,1.3189-1.9787,3.0842-3.464,5.0625-4.4688,5.63-2.8583,12.1254-5.81229,7.25-9.0625L0,37.5617,0,0,56.3437-2.5e-5,149.656,62.2187c4.8753,3.2502,5.1207-3.8911,5.5938-10.1875,0.1668-2.2125,0.8371-4.4276,2.1562-6.4062,4.0289-6.0432,12.2064-7.6541,18.25-3.625,2.6773,1.7849,4.4063,4.3754,5.3126,7.2187l5.4062,16.9375c6.5795,20.6411,20.1108,33.9489,41.2812,48.0626l52,34.6562c4.8754,3.2503,5.1207-3.8598,5.5938-10.1562,0.1667-2.2126,0.8684-4.4277,2.1875-6.4063,4.0288-6.0432,12.175-7.6852,18.2187-3.6563,2.6774,1.7849,4.4375,4.4068,5.3438,7.25l5.375,16.9063c6.5795,20.641,20.1107,33.9488,41.2812,48.0625l182.031,121.343c4.8753,3.2502,5.0894-3.86,5.5625-10.1563,0.1668-2.2126,0.8684-4.4277,2.1875-6.4063,4.0288-6.0432,12.2063-7.6852,18.25-3.6562,2.6774,1.7849,4.4062,4.4067,5.3125,7.25l5.4062,16.9062c6.5795,20.6411,20.1108,33.9489,41.2813,48.0626l52,34.6874c4.87529,3.2504,5.1207-3.8912,5.59379-10.1874,0.1668-2.2127,0.8372-4.4276,2.15621-6.4063,4.02889-6.0433,12.2064-7.654,18.25-3.625,2.6774,1.7849,4.4062,4.3755,5.3125,7.2187l5.4063,16.9376c6.5802,20.641,20.1104,33.949,41.2812,48.062l2.313,1.532z" fill="#da121a"/>
<script xmlns=""/></svg>