<svg xmlns="http://www.w3.org/2000/svg" width="750" height="500" viewBox="0 0 750 500"><title>Estelada_roja</title><rect width="750" height="500" fill="gold"/><polygon points="0 388.477 111.523 388.477 166.477 333.523 0 333.523 0 388.477" fill="gold"/><polygon points="0 500 55.477 444.523 0 444.523 0 500" fill="gold"/><polygon points="0 277.477 222.523 277.477 250 250 222.523 222.523 0 222.523 0 277.477" fill="gold"/><polygon points="750 111.516 750 55.469 55.469 55.469 111.516 111.516 750 111.516" fill="#c00"/><polygon points="750 222.523 750 166.477 166.477 166.477 222.523 222.523 750 222.523" fill="#c00"/><polygon points="750 333.523 750 277.477 222.523 277.477 166.477 333.523 750 333.523" fill="#c00"/><polygon points="750 444.523 750 388.477 111.523 388.477 55.477 444.523 750 444.523" fill="#c00"/><path d="M109,177l44,135L38,228H180L65,312Z" fill="#c00"/><script xmlns=""/></svg>