<?xml version="1.0" encoding="UTF-8"?>
<svg version="1.0" xmlns="http://www.w3.org/2000/svg" xmlns:xlink="http://www.w3.org/1999/xlink" width="600" height="390">
	<rect width="600" height="390" fill="#093db7"/>
	<g id="q1">
		<g id="fleur" transform="matrix(.80496552,0,0,.80496552,-243.58499,-440.53462)">
			<g transform="matrix(.9025,0,0,.9025,24.097588,500.36427)">
				<path d="m 502.0459,263.91545 c .574,-5.39646 .2684,-15.5749 -2.5708,-20.19983 -.9594,-1.56279 -3.3097,-3.38275 -5.1418,-3.30542 -1.8055,.0762 -4.29,.60986 -5.1418,2.20361 -.7808,1.46083 -1.2877,4.59767 -1.1018,6.24359 .2582,2.28612 2.9382,6.97812 2.9382,6.97812 0,0 -9.6038,-1.92736 -12.8545,-4.40724 -3.2162,-2.45361 -6.6875,-7.10482 -7.7126,-11.01809 -.3517,-1.34254 -1.7247,-5.68443 .009,-10.89262 1.0064,-3.02315 4.0336,-7.06875 6.3762,-9.08505 6.1173,-5.2652 17.9963,-3.73456 20.4255,-2.42577 3.2127,1.73091 7.1281,5.41194 8.4472,8.81447 1.024,2.64119 3.1525,10.43714 3.6727,13.22171 1.0616,5.68278 1.3699,7.82674 1.8364,13.58897 .3202,3.9551 1.2029,7.50631 .3672,11.38536 -.4502,2.08989 -1.0125,6.88623 -2.2337,10.04454 -1.2278,3.17525 -3.1176,4.71065 -4.7444,6.11532 -3.3233,2.86953 -13.9563,4.40725 -13.9563,4.40725 0,0 5.8421,-7.36967 7.3454,-10.65082 1.7852,-3.89624 3.5866,-6.7564 4.0399,-11.0181 z" fill="#ffe24b"/>
				<path d="m 528.08801,263.91545 c -.574,-5.39646 -.2684,-15.5749 2.5708,-20.19983 .9594,-1.56279 3.3097,-3.38275 5.1418,-3.30542 1.8055,.0762 4.29,.60986 5.1418,2.20361 .7808,1.46083 1.2877,4.59767 1.1018,6.24359 -.2582,2.28612 -2.9382,6.97812 -2.9382,6.97812 0,0 9.6038,-1.92736 12.8545,-4.40724 3.2162,-2.45361 6.6875,-7.10482 7.7126,-11.01809 .3517,-1.34254 1.7247,-5.68443 -.009,-10.89262 -1.0064,-3.02315 -4.0336,-7.06875 -6.3762,-9.08505 -6.1173,-5.2652 -17.9963,-3.73456 -20.4255,-2.42577 -3.2127,1.73091 -7.1281,5.41194 -8.4472,8.81447 -1.024,2.64119 -3.1525,10.43714 -3.6727,13.22171 -1.0616,5.68278 -1.3699,7.82674 -1.8364,13.58897 -.3202,3.9551 -1.2029,7.50631 -.3672,11.38536 .4502,2.08989 1.0125,6.88623 2.2337,10.04454 1.2278,3.17525 3.1176,4.71065 4.7444,6.11532 3.3233,2.86953 13.9563,4.40725 13.9563,4.40725 0,0 -5.8421,-7.36967 -7.3454,-10.65082 -1.7852,-3.89624 -3.5866,-6.7564 -4.0399,-11.0181 z" fill="#ffe24b"/>
			</g>
			<path d="m 509.61143,757.55896 -2.52823,-.0402 -8.09738,-2.5449 -9.71685,-8.56008 -7.17196,6.82493 -4.85843,2.31353 -5.55248,1.85083 -3.68592,.25062 c 0,0 6.52694,-4.39347 8.7795,-6.86397 1.61101,-1.76687 3.25365,-4.55927 4.30995,-6.70435 1.82011,-3.69622 4.62918,-12.92982 4.72694,-12.99321 l 2.0689,-.31037 3.99068,.31925 c 0,0 2.80907,9.2336 4.62919,12.92982 1.05629,2.14508 2.69893,4.93748 4.30994,6.70435 2.25257,2.4705 8.79615,6.82376 8.79615,6.82376 z" fill="#ddad00"/>
			<path d="m 510.90815,731.02965 c 0,0 4.92948,-2.07923 6.39806,-3.75059 1.56606,-1.78232 2.61593,-4.95556 3.08873,-7.28057 .35611,-1.75121 -.51282,-5.46748 -1.32375,-7.05994 -1.22552,-2.40665 -2.72661,-3.7979 -5.29495,-4.63308 -1.7624,-.5731 -4.44053,-.64621 -6.17744,0 -1.80323,.67088 -4.32663,2.23793 -5.51558,3.75059 -1.79265,2.28073 -2.84908,4.90193 -3.52997,7.72181 -.41945,1.73713 -1.36095,7.03827 -1.32375,8.82493 .0331,1.58952 .22063,6.61869 .22063,6.61869 l 3.30935,5.51558 .0824,-.25119 -.24721,-9.14656 0,-3.83167 1.73044,-5.9329 2.84285,-3.83166 3.33725,-.49441 3.21365,1.60683 1.35963,3.46085 -.24721,4.20248 -1.92313,4.51081 z" fill="#ddad00"/>
			<path d="m 466.99548,731.01925 c 0,0 -4.92948,-2.07922 -6.39806,-3.75059 -1.56607,-1.78232 -2.61594,-4.95555 -3.08873,-7.28057 -.35611,-1.75121 .51282,-5.46748 1.32374,-7.05994 1.22553,-2.40665 2.72662,-3.7979 5.29496,-4.63308 1.7624,-.5731 4.44053,-.64621 6.17744,0 1.80323,.67088 4.32663,2.23794 5.51558,3.75059 1.79265,2.28074 2.84908,4.90193 3.52997,7.72182 .41945,1.73712 1.36095,7.03826 1.32374,8.82492 -.0331,1.58952 -.22062,6.61869 -.22062,6.61869 l -3.30935,5.51558 -.0824,-.25118 .24721,-9.14656 0,-3.83167 -1.73044,-5.9329 -2.84285,-3.83167 -3.33725,-.4944 -3.21365,1.60682 -1.35963,3.46086 .24721,4.20247 1.92313,4.51081 z" fill="#ddad00"/>
			<g transform="matrix(.9025,0,0,.9025,24.097588,500.36427)" fill="none" stroke="#540">
				<path d="m 502.0459,263.91545 c .574,-5.39646 .2684,-15.5749 -2.5708,-20.19983 -.9594,-1.56279 -3.3097,-3.38275 -5.1418,-3.30542 -1.8055,.0762 -4.29,.60986 -5.1418,2.20361 -.7808,1.46083 -1.2877,4.59767 -1.1018,6.24359 .2582,2.28612 2.9382,6.97812 2.9382,6.97812 0,0 -9.6038,-1.92736 -12.8545,-4.40724 -3.2162,-2.45361 -6.6875,-7.10482 -7.7126,-11.01809 -.3517,-1.34254 -1.7247,-5.68443 .009,-10.89262 1.0064,-3.02315 4.0336,-7.06875 6.3762,-9.08505 6.1173,-5.2652 17.9963,-3.73456 20.4255,-2.42577 3.2127,1.73091 7.1281,5.41194 8.4472,8.81447 1.024,2.64119 3.1525,10.43714 3.6727,13.22171 1.0616,5.68278 1.3699,7.82674 1.8364,13.58897 .3202,3.9551 1.2029,7.50631 .3672,11.38536 -.4502,2.08989 -1.0125,6.88623 -2.2337,10.04454 -1.2278,3.17525 -3.1176,4.71065 -4.7444,6.11532 -3.3233,2.86953 -13.9563,4.40725 -13.9563,4.40725 0,0 5.8421,-7.36967 7.3454,-10.65082 1.7852,-3.89624 3.5866,-6.7564 4.0399,-11.0181 z" stroke-width="1.37649775"/>
				<path d="m 528.08801,263.91545 c -0.574,-5.39646 -0.2684,-15.5749 2.5708,-20.19983 0.9594,-1.56279 3.3097,-3.38275 5.1418,-3.30542 1.8055,0.0762 4.29,0.60986 5.1418,2.20361 0.7808,1.46083 1.2877,4.59767 1.1018,6.24359 -0.2582,2.28612 -2.9382,6.97812 -2.9382,6.97812 0,0 9.6038,-1.92736 12.8545,-4.40724 3.2162,-2.45361 6.6875,-7.10482 7.7126,-11.01809 0.3517,-1.34254 1.7247,-5.68443 -0.009,-10.89262 -1.0064,-3.02315 -4.0336,-7.06875 -6.3762,-9.08505 -6.1173,-5.2652 -17.9963,-3.73456 -20.4255,-2.42577 -3.2127,1.73091 -7.1281,5.41194 -8.4472,8.81447 -1.024,2.64119 -3.1525,10.43714 -3.6727,13.22171 -1.0616,5.68278 -1.3699,7.82674 -1.8364,13.58897 -0.3202,3.9551 -1.2029,7.50631 -0.3672,11.38536 0.4502,2.08989 1.0125,6.88623 2.2337,10.04454 1.2278,3.17525 3.1176,4.71065 4.7444,6.11532 3.3233,2.86953 13.9563,4.40725 13.9563,4.40725 0,0 -5.8421,-7.36967 -7.3454,-10.65082 -1.7852,-3.89624 -3.5866,-6.7564 -4.0399,-11.0181 z" stroke-width="1.37649775"/>
			</g>
			<path d="m 453.71595,718.4228 c 0,0 0.42902,-3.39708 0.80825,-5.05147 0.46642,-2.03482 1.49304,-4.85212 3.03089,-6.26385 1.62546,-1.49218 4.08801,-2.66415 6.26384,-3.03089 1.91372,-0.32257 4.58429,-0.27327 6.46589,0.20206 1.44559,0.36518 3.17279,1.44561 4.4453,2.22265 0.96233,0.58762 3.0309,2.22266 3.0309,2.22266 0,0 -3.75979,-5.96247 -6.26384,-7.47621 -2.44202,-1.47623 -6.44215,-2.09504 -9.29473,-2.02059 -2.07274,0.0541 -4.33533,1.07439 -6.06178,2.22266 -2.04962,1.36322 -4.2501,4.13844 -5.05148,6.4659 -0.5723,1.66215 -0.50191,4.17497 0,5.85972 0.53763,1.80467 2.62676,4.64736 2.62676,4.64736 z" fill="#fff2ac"/>
			<path d="m 506.25138,703.87453 c 0,0 5.13389,-0.84706 7.27414,-0.40412 2.65466,0.5494 6.14332,2.1467 8.08238,4.04119 1.66803,1.6297 3.63706,6.87001 3.63706,6.87001 0,0 0.16312,-5.49944 -0.60618,-7.67825 -0.46462,-1.31591 -1.56351,-2.93527 -2.62677,-3.83913 -1.63224,-1.38754 -4.32381,-3.00067 -6.4659,-3.03088 -1.12483,-0.0159 -3.69993,-0.073 -5.22518,0.62512 -2.59728,1.1888 -4.06955,3.41606 -4.06955,3.41606 z" fill="#fff2ac"/>
			<g transform="matrix(0.9025,0,0,0.9025,28.610084,3.9892681)">
				<path d="m 510,854 c 0,0 8.58079,-7.03775 10,-15 1.27665,-7.16228 -4.4103,-15.5515 -4.84132,-18.92499 -1.72367,-13.49216 1.92936,-31.46657 2.25863,-32.93573 1.30797,-5.83607 2.95399,-8.33308 3.83033,-10.24414 0.63083,-1.37567 2.43333,-4.1112 4.23574,-6.76319 1.03432,-1.52175 3.33777,-4.35506 4.51118,-7.23688 1.24372,-3.0544 1.32896,-6.16333 1.34698,-7.82303 0.0307,-2.8265 -0.50296,-5.23079 -1.25324,-7.53217 -0.71305,-2.18762 -3.03665,-5.76776 -6.40372,-7.82555 -3.63004,-2.21837 -6.56481,-4.00185 -7.68157,-4.70812 C 512.31404,732.67317 510.04353,725 510,725 c -0.0434,0 -2.31409,7.67317 -6.00305,10.0062 -1.11676,0.70627 -3.91757,2.48975 -7.54761,4.70812 -3.36709,2.05779 -5.69067,5.63793 -6.40372,7.82555 -0.75028,2.30138 -1.28395,4.70567 -1.25324,7.53217 0.018,1.6597 0.10326,4.76863 1.34698,7.82303 1.1734,2.88182 3.47686,5.71513 4.51118,7.23688 1.80241,2.65199 3.60491,5.38752 4.23574,6.76319 0.87634,1.91106 2.52236,4.40807 3.83033,10.24414 0.32927,1.46916 3.9823,19.44357 2.25863,32.93573 C 504.54422,823.4485 498.72335,831.83772 500,839 c 1.41921,7.96225 10,15 10,15 z" fill="#ffe24b"/>
				<path d="M 510,854 509.9892,726.04466" stroke="#9e7500" stroke-width="1.37649775"/>
			</g>
			<path d="m 489.12022,774.48931 6.31402,-7.04256 2.42846,-4.61408 -0.4857,-6.31401 -1.69992,-6.55686 -2.67132,-5.82832 0,-9.47102 0.97139,-9.47102 1.21423,-10.44241 2.67132,-8.25679 4.37124,-6.07117 3.6427,-6.314 1.45708,-3.39986 0.72854,-6.07117 -0.97139,-5.82832 -3.07468,-4.92702 -5.91064,-4.0583 c 0,0 3.50187,3.93691 5.79901,7.63948 1.23337,1.98796 1.21806,4.42689 1.24354,4.98854 0.10894,2.40172 -0.0738,3.51502 -0.72855,5.82833 -0.60573,2.14006 -1.88952,4.48636 -3.15699,6.31401 -1.42012,2.04775 -3.9595,4.34106 -5.09979,6.55686 -1.63485,3.17683 -2.738,7.90281 -3.39985,11.41379 -0.81257,4.31047 -0.92432,10.194 -1.21423,14.5708 -0.29408,4.43974 -1.08048,10.37811 -0.72855,14.81364 0.22378,2.82028 1.44391,6.77471 1.94278,9.22818 0.34505,1.697 1.23672,3.86783 1.45708,5.58547 0.21321,1.66202 0.22802,3.92542 0,5.58548 -0.25739,1.8738 -0.97778,4.32304 -1.69993,6.07116 -0.79701,1.92936 -3.39985,6.07117 -3.39985,6.07117 z" fill="#ddad00"/>
			<path d="m 480.62058,763.80405 c 0,0 0.14807,-3.76904 0.4857,-5.34262 0.46885,-2.18512 1.6423,-4.95055 2.42847,-7.04255 0.74719,-1.98828 2.23049,-4.47908 2.67131,-6.55687 0.96815,-4.56336 0.75753,-10.88517 0.4857,-15.54218 -0.20174,-3.45603 -1.21313,-7.98629 -1.69993,-11.41379 -0.3825,-2.69307 -1.0979,-6.88547 -1.94278,-9.47102 -0.90119,-2.75788 -2.37702,-6.27874 -3.88554,-8.75712 -1.28175,-2.10581 -3.01784,-4.17789 -4.61409,-6.05653 -1.23465,-1.45307 -4.61408,-4.37124 -4.61408,-4.37124 l 0.46959,0.17701 0.55738,2.6011 2.22951,3.71584 2.22951,4.08743 3.71584,5.75957 2.41531,6.13114 1.30054,6.50273 1.11476,8.91804 0.55737,8.91802 0,8.36067 -2.04371,4.27322 -2.41531,6.50272 -0.74316,5.38798 1.29761,3.21845 z" fill="#ddad00"/>
			<path d="m 488.88508,774.72427 c 0,0 7.74417,-6.35157 9.025,-13.5375 1.15218,-6.46396 -3.98029,-14.03523 -4.36929,-17.07981 -1.55561,-12.17667 1.74125,-28.39857 2.03842,-29.72449 1.18044,-5.26705 2.66597,-7.52061 3.45687,-9.24534 0.56932,-1.24154 2.19608,-3.71036 3.82275,-6.10378 0.93348,-1.37338 3.01234,-3.93044 4.07134,-6.53128 1.12246,-2.7566 1.19939,-5.56241 1.21565,-7.06029 0.0277,-2.55091 -0.45392,-4.72078 -1.13105,-6.79778 -0.64352,-1.97433 -2.74057,-5.2054 -5.77935,-7.06256 -3.27611,-2.00208 -5.92474,-3.61167 -6.93262,-4.24908 -3.32929,-2.10556 -5.37843,-9.03059 -5.41772,-9.03059 -0.0392,0 -2.08846,6.92503 -5.41775,9.03059 -1.00787,0.63741 -3.53561,2.247 -6.81172,4.24908 -3.0388,1.85716 -5.13583,5.08823 -5.77935,7.06256 -0.67713,2.077 -1.15877,4.24687 -1.13105,6.79778 0.0163,1.49788 0.0932,4.30369 1.21565,7.06029 1.05899,2.60084 3.13786,5.1579 4.07134,6.53128 1.62667,2.39342 3.25343,4.86224 3.82275,6.10378 0.7909,1.72473 2.27643,3.97829 3.45687,9.24534 0.29717,1.32592 3.59403,17.54782 2.03842,29.72449 -0.389,3.04458 -5.64233,10.61585 -4.49016,17.07981 1.28084,7.18593 9.025,13.5375 9.025,13.5375 z" fill="none" stroke="#540" stroke-width="1.24228919"/>
			<path d="m 484.5917,700.94093 0.66376,-29.86936 c 0,0 -3.71708,2.78781 -5.31011,3.98258 -1.19477,0.89609 -3.23765,1.69252 -3.98258,2.98694 -1.70014,2.95427 -2.44651,6.20836 -0.99563,9.29269 0.85814,1.82426 3.94113,4.16203 5.3101,5.64199 1.84535,1.99498 4.31446,7.96516 4.31446,7.96516 z" fill="#fff2ac"/>
			<path d="m 492.22498,696.29459 0,-21.57231 c 0,0 1.18392,2.2742 1.99129,2.98693 0.66761,0.58936 1.99375,0.73111 2.65505,1.32753 0.96401,0.86943 2.07033,2.37739 2.32317,3.6507 0.33478,1.68583 -0.16587,4.1368 -0.99564,5.64198 -0.71458,1.29622 -2.75693,2.13901 -3.6507,3.31883 -0.94104,1.24223 -2.32317,4.64634 -2.32317,4.64634 z" fill="#fff2ac"/>
			<path d="m 486.79692,765.32599 c -0.27741,-2.87574 -0.21393,-9.62457 -0.21393,-9.62457 0,0 -2.45446,3.63006 -2.86497,5.27212 -0.21733,0.86933 -0.43471,2.74929 -0.20993,3.61672 0.51426,1.98461 3.86462,6.05784 3.86462,6.05784 0,0 -0.44825,-3.99989 -0.57579,-5.32211 z" fill="#fff2ac"/>
			<g transform="matrix(0.9025,0,0,0.9025,42.525244,-4.7095233)" stroke-width="1.37649775">
				<path d="m 513.85885,820.35686 -4.1277,-5.71831 -30.1496,0 -4.1434,5.71831 4.1434,5.6925 30.1496,0 4.1277,-5.6925 z" fill="#ffe24b"/>
				<path d="m 477.69652,817.99066 34.196,0.18484 -2.52619,-3.57363 -29.88299,-0.0616 -1.78682,3.45041 z" fill="#fff2ac"/>
				<path d="m 511.75052,822.80242 -34.196,-0.18484 2.52619,3.57363 29.88299,0.0616 1.78682,-3.45041 z" fill="#ddad00"/>
				<path d="m 513.85885,820.35686 -4.1277,-5.71831 -30.1496,0 -4.1434,5.71831 4.1434,5.6925 30.1496,0 4.1277,-5.6925 z" fill="none" stroke="#540" stroke-width="1.37649775"/>
			</g>
		</g>
		<use xlink:href="#fleur" x="-63.875" y="-77.5"/>
		<use xlink:href="#fleur" x="63.875" y="-77.5"/>
	</g>
	<g id="q2">
		<rect x="300" width="300" height="195" fill="#f5dd55"/>
		<g transform="translate(178.69208,-2.1837933)" stroke-width="1">
			<path d="m 277.19957,64.394066 -8.36913,-4.945395 -5.70622,0.76083 c 0,0 -2.06442,3.261982 -1.0275,4.969639 1.4851,2.445731 2.7087,0.947524 2.83407,2.765392 0.0882,1.278357 -0.57448,2.788468 -2.39024,4.934024 1.36164,-0.01818 2.23099,0.831361 6.35144,-2.763345 0,0 0.24325,2.11483 0.85779,3.181313 0.82087,1.424543 1.42997,0.876294 2.24707,2.303004 0.54536,0.952239 0.51855,1.474056 0.64521,2.564071 0.11719,1.008535 -1.69322,3.983169 -1.69322,3.983169 5.67002,-1.114898 6.25668,-10.400861 6.25073,-17.752702 z" fill="#ce4437" stroke="#a02c2c" stroke-width="1"/>
			<g transform="matrix(1.05,0,0,1.05,-1067.2264,-727.58755)" stroke-width="0.95238096">
				<path d="m 1291.40441,776.078661 9.0408,-14.99957 -2.2729,-22.72889 -17.5337,-20.1313 -8.7669,-3.57168 -4e-4,0 c 0,0 2.5052,-1.5515 6.5107,-2.71386 1.9645,-0.5701 5.8262,-1.28492 7.1878,-1.76359 1.9719,-0.69328 2.9216,-1.2869 5.3554,-2.41251 2.0837,-0.96367 4.6174,-1.6361 6.4008,-1.4875 4.3323,0.36098 5.6474,1.17182 7.534,2.14591 0,0 -1.8362,1.61791 -2.3958,2.36982 -0.5596,0.75192 -0.4248,1.3495 -0.2355,2.02611 0.6132,2.19095 5.8722,2.00962 8.6714,3.32035 3.8371,1.79672 5.7796,4.68454 5.7796,4.68454 0,0 -1.6454,0.16793 -1.699,1.14982 -0.1397,2.5577 3.2704,3.99897 4.9171,5.81103 0.8462,0.93111 1.7927,2.50946 2.0664,4.30304 0.3056,2.00245 0.2393,2.90926 0.9086,4.68813 0.3746,0.99547 1.1798,2.23602 1.9244,3.12559 0,0 -1.3665,0.82399 -2.2201,0.90091 -1.0331,0.0931 -2.1305,-0.16284 -2.1305,-0.16284 0,0 1.8654,2.22547 2.6317,3.92876 0.6048,1.3445 0.2336,3.48418 0.5072,5.34553 0.2961,2.01544 1.2117,3.70457 1.2117,3.70457 l -2.8569,0.88639 c 0,0 1.3014,4.17262 1.1038,6.29319 -0.099,1.06041 2.4939,4.20849 2.1478,6.79134 -0.9723,-0.0663 -3.6839,-1.1547 -4.1175,-1.04093 -3.5628,0.93489 -3.8155,2.46273 -4.2922,6.02676 -0.4127,3.08534 -0.069,9.34062 -0.069,9.34062 0,0 -5.6685,1.63716 -7.4276,3.37837 -2.7793,2.751 -2.9958,9.88566 -2.9958,9.88566 0,0 -4.6946,-0.70584 -6.4907,0.51247 z" fill="#ce4437"/>
				<path d="m 1304.7197,718.4238 c -1.9031,0.19182 -2.4222,0.89879 -3.5753,1.34818 0,0 2.8152,-0.18245 3.6788,-0.20907 1.8844,-0.0582 3.7087,0.31889 5.5215,0.57964 1.8834,0.27094 4.7923,3.08791 4.7923,3.08791 l 0.2212,-1.73288 1.5877,-0.71511 c 0,0 -4.2134,-1.8688 -6.4137,-2.13992 -1.9885,-0.24502 -4.4847,-0.35258 -5.8125,-0.21875 z" fill="#900000"/>
				<path d="m 1311.5225,736.68267 c 0,0 1.2513,0.55664 2.4138,0.72399 1.1625,0.16735 2.3258,0.81861 3.0334,1.14214 0.5631,0.25745 1.514,0.98634 2.25,1.625 0.736,0.63866 1.2812,1.1875 1.2813,1.1875 l 1.0624,-1.0625 c 0,0 -0.5654,-0.57463 -1.3437,-1.25 -0.7783,-0.67537 -1.7392,-1.43875 -2.625,-1.84375 -1.0304,-0.47108 -2.3631,-0.98703 -3.5841,-0.83407 l -2.4881,0.31169 z" fill="#900000"/>
				<path d="m 1313.8728,746.81721 c 0,0 1.1344,0.73909 1.9159,0.90644 0.7814,0.16731 1.2722,0.96515 1.556,1.20015 0.4937,0.40879 0.7998,1.08261 1.0937,1.90625 0.294,0.82364 0.5366,1.77598 1.1563,2.625 0.4008,0.54911 1.0051,0.94332 1.5313,1.28125 0.5261,0.33793 1.0031,1.55967 1.0031,1.55967 l 0.41,-1.76463 1.409,-0.99205 c 0,0 -1.5734,-0.057 -2.0441,-0.35932 -0.4706,-0.30229 -0.981,-0.44984 -1.0906,-0.59992 -0.4107,-0.56277 -0.6562,-1.37452 -0.9687,-2.25 -0.1694,-0.47465 -0.3983,-1.21098 -1.0005,-1.98176 -0.5086,-0.65091 -1.7057,-1.4644 -2.2125,-1.47475 l -2.7589,-0.0563 z" fill="#900000"/>
				<path d="m 1316.58401,760.523881 c 0,0 -0.7661,1.93772 -0.833,2.64992 -0.067,0.7122 -0.1027,1.54834 0.094,2.28125 0.1975,0.7382 0.6191,1.74646 1.0367,2.33571 0.4176,0.58925 0.3218,2.22458 0.3218,2.22458 l 1.0306,-2.10154 1.9592,-1.03642 c 0,0 -1.5344,0.009 -1.9121,-0.52432 -0.3779,-0.5331 -0.9147,-0.99035 -0.9987,-1.30426 -0.083,-0.30865 -0.3809,-1.30771 -0.4444,-1.95117 l -0.2538,-2.57375 z m -5.9115,13.75166 c 0,0 -0.9841,1.70501 -0.8901,2.64821 0.095,0.9432 0.2543,2.02798 0.6875,2.875 0.4416,0.86262 1.1697,1.45861 1.875,1.90625 0.9825,0.62352 0.524,1.85924 0.524,1.85924 l 3.9835,-2.08576 c 0,0 -2.9509,-0.55126 -3.695,-1.02348 -0.5813,-0.36888 -1.0908,-0.84989 -1.3438,-1.34375 -0.2235,-0.43702 -0.7608,-1.47334 -0.8592,-2.34375 z m -7.2655,11.78124 c 0,0 -1.1552,2.70058 -0.8748,4.27327 0.1526,0.85558 0.4652,1.68625 0.9062,2.4375 0.3367,0.57341 0.2759,1.18063 0.7424,1.6875 0.4665,0.50687 -0.2185,0.90625 -0.2185,0.90625 l 2.3971,-0.35993 0.329,-2.86612 c 0,0 -0.9212,0.99897 -1.3591,0.52311 -0.4381,-0.47586 -0.6495,-0.40569 -0.8517,-0.75016 -0.3479,-0.59278 -0.9769,-1.60762 -0.9921,-2.29679 l -0.078,-3.55463 z" fill="#8d0101"/>
				<path d="m 1291.5204,775.88614 8.9248,-14.80705 -2.2729,-22.72888 -17.5337,-20.1313 -8.7669,-3.57168 -4e-4,0 c 0,0 2.5052,-1.5515 6.5107,-2.71386 1.9645,-0.5701 5.8262,-1.28492 7.1878,-1.76359 1.9719,-0.69328 2.9216,-1.2869 5.3554,-2.41251 2.0837,-0.96367 4.6174,-1.6361 6.4008,-1.4875 4.3323,0.36098 5.6474,1.17182 7.534,2.14591 0,0 -1.8362,1.61791 -2.3958,2.36982 -0.5596,0.75192 -0.4248,1.3495 -0.2355,2.02611 0.6132,2.19095 5.8722,2.00962 8.6714,3.32035 3.8371,1.79672 5.7796,4.68454 5.7796,4.68454 0,0 -1.6454,0.16793 -1.699,1.14982 -0.1397,2.5577 3.2704,3.99897 4.9171,5.81103 0.8462,0.93111 1.7927,2.50946 2.0664,4.30304 0.3056,2.00245 0.2393,2.90926 0.9086,4.68813 0.3746,0.99547 1.1798,2.23602 1.9244,3.12559 0,0 -1.3665,0.82399 -2.2201,0.90091 -1.0331,0.0931 -2.1305,-0.16284 -2.1305,-0.16284 0,0 1.8654,2.22547 2.6317,3.92876 0.6048,1.3445 0.2336,3.48418 0.5072,5.34553 0.2961,2.01544 1.2117,3.70457 1.2117,3.70457 l -2.8569,0.88639 c -0.3317,4.55889 3.5871,9.46461 3.2516,13.08452 -0.9723,-0.0663 -3.6839,-1.1547 -4.1175,-1.04093 -3.5628,0.93489 -3.8155,2.46273 -4.2922,6.02676 -0.4127,3.08534 -0.069,9.34062 -0.069,9.34062 0,0 -5.6685,1.63716 -7.4276,3.37837 -2.7793,2.751 -2.9958,9.88566 -2.9958,9.88566 0,0 -4.6946,-0.70584 -6.4907,0.51247 z" fill="none" stroke="#a02c2c" stroke-width="0.95238096"/>
				<path d="m 1295.9384,709.14255 c -1.7638,0.43537 -3.1553,0.53429 -4.5624,1.73981 -0.7864,0.67373 -4.3344,2.40419 -4.9994,3.5676 -0.665,1.16341 -3.3987,2.66134 -3.3987,2.66134 l 10.5047,5.89978 c 0,0 -3.7813,-4.79302 -3.1395,-5.91575 0.6417,-1.12273 1.6737,-3.82814 2.0016,-4.10903 1.2815,-1.0979 2.5693,-2.18857 4.1563,-2.82105 1.0099,-0.40252 4.6289,-1.22827 4.6289,-1.22827 -5.1252,-0.2437 -3.197,-0.28674 -5.1915,0.20557 z" fill="#900000"/>
				<path d="m 1309.1572,723.14255 c 0,0 0.2068,0.63692 0.5625,1.40625 0.3557,0.76933 0.8331,1.67152 1.5,2.34375 0.8825,0.88953 2.0348,1.30992 3.0625,1.71875 1.0277,0.40883 1.9318,0.81019 2.4375,1.40625 0.4312,0.50823 1.2112,1.63256 1.4456,2.59375 0.2345,0.96119 0.6205,2.40985 0.6205,2.40985 0.6409,-1.74775 0.4681,-1.92222 0.4652,-2.7536 0,-1.05023 -0.6165,-2.32467 -1.375,-3.21875 -0.8227,-0.9697 -1.9886,-1.42895 -3.0313,-1.84375 -1.0427,-0.4148 -1.9988,-0.77563 -2.5625,-1.34375 l -3.125,-2.71875 z" fill="#900000"/>
			</g>
			<g transform="matrix(0.50753957,1.0287585,-0.82007319,0.63669397,292.68153,-1507.3656)">
				<path d="m 1127.2628,702.0744 c 0,0 3.5387,5.23377 4.2814,7.80723 1.0242,3.54891 0.7427,6.20368 0,9.82199 -0.3856,1.87883 -0.4833,3.57316 -0.8689,5.45199 -0.4389,2.13809 -0.1184,3.6707 1.0074,5.5406 1.6658,2.76678 7.3035,4.78508 7.3035,4.78508 0,0 -2.849,-3.62154 -3.0221,-5.79246 -0.211,-2.64628 1.3725,-5.70383 1.3725,-5.70383 0,0 0.7746,2.52609 1.763,3.274 1.2344,0.93402 4.5332,1.00739 4.5332,1.00739 0,0 -2.4573,-3.1465 -2.7703,-5.03692 -0.2367,-1.42971 0.1143,-2.98176 0.7555,-4.28139 0.6046,-1.22556 2.0165,-1.88228 2.7703,-3.02215 0.5595,-0.84608 1.2593,-2.77031 1.2593,-2.77031 0,0 2.1638,-0.0163 3.121,-0.34131 1.1817,-0.40125 2.6714,-1.9253 2.6714,-1.9253 0,0 -4.6053,-1.01726 -6.548,-2.26661 -2.0476,-1.31684 -3.1033,-2.26924 -4.7851,-4.02954 -1.9276,-2.01777 -7.3035,-7.30353 -7.3035,-7.30353 0,0 -1.878,-0.57825 -3.274,0 -0.6581,0.27259 -1.1821,0.87925 -1.5111,1.51107 -0.6692,1.28539 -0.7555,3.274 -0.7555,3.274 z" fill="#ce4437"/>
				<path d="m 1131.75,701.31309 c 0,0 3.455,3.15028 4.875,4.59316 1.752,1.78023 2.74,4.54878 5,6.28125 0.6393,0.49014 0.977,0.81059 1.7818,1.0625 0.4241,0.13275 0.7959,0.4579 0.8657,1.20344 0.063,0.66922 -0.1565,1.77319 -0.1565,1.77319 l 1.0911,-2.84915 2.4889,-0.68998 c 0,0 -2.623,-0.13694 -3.3835,-0.375 -0.7605,-0.23806 -1.6476,-0.58819 -2.0625,-0.90625 -1.947,-1.49261 -3.4363,-5.56438 -5.796,-7.07725 l -4.704,-3.01591 z m 3.9375,10.34316 c 0,0 1.3573,2.08859 1.8437,3.375 0.5644,1.49281 0.3356,3.53434 0.1563,5.3125 -0.1704,1.69074 -1.0625,4.34375 -1.0625,4.34375 l 1.0786,0.18875 0.9464,1.80438 c 0,0 -0.3789,-2.25822 -0.4145,-3.62211 -0.027,-1.03708 0.4672,-1.88925 0.5509,-2.71988 0.1777,-1.76286 0.6482,-4.95964 -0.7443,-6.34316 l -2.3546,-2.33923 z" fill="#8d0101"/>
				<path d="m 1127.2628,702.0744 c 0,0 3.5387,5.23377 4.2814,7.80723 1.0242,3.54891 0.7427,6.20368 0,9.82199 -0.3856,1.87883 -0.4833,3.57316 -0.8689,5.45199 -0.4389,2.13809 -0.1184,3.6707 1.0074,5.5406 1.6658,2.76678 6.3981,4.03374 6.3981,4.03374 0,0 -1.9436,-2.8702 -2.1167,-5.04112 -0.211,-2.64628 1.3725,-5.70383 1.3725,-5.70383 0,0 0.7746,2.52609 1.763,3.274 1.2344,0.93402 4.5332,1.00739 4.5332,1.00739 0,0 -2.4573,-3.1465 -2.7703,-5.03692 -0.2367,-1.42971 0.1143,-2.98176 0.7555,-4.28139 0.6046,-1.22556 2.0165,-1.88228 2.7703,-3.02215 0.5595,-0.84608 1.2593,-2.77031 1.2593,-2.77031 0,0 2.1638,-0.0163 3.121,-0.34131 1.1817,-0.40125 2.6714,-1.9253 2.6714,-1.9253 0,0 -4.6053,-1.01726 -6.548,-2.26661 -2.0476,-1.31684 -3.1033,-2.26924 -4.7851,-4.02954 -1.9276,-2.01777 -7.3035,-7.30353 -7.3035,-7.30353 0,0 -1.878,-0.57825 -3.274,0 -0.6581,0.27259 -1.1821,0.87925 -1.5111,1.51107 -0.6692,1.28539 -0.7555,3.274 -0.7555,3.274 z" fill="none" stroke="#a02c2c" stroke-width="0.92576534"/>
			</g>
			<g transform="matrix(-0.75366604,-0.73108652,-0.73108652,0.75366604,1838.4562,423.09739)">
				<path d="m 1247.46841,844.482991 c 0,0 -3.7182,0.14416 -5.4065,-0.78016 -1.9958,-1.0927 -3.5798,-3.08689 -4.4209,-5.20112 -0.8528,-2.14381 -0.6797,-6.91203 -0.6797,-6.91203 -0.055,-1.039 -1.2102,-2.08583 -2.6301,-1.68089 -1.1585,0.33038 -4.4919,1.20641 -4.4919,1.20641 0,0 0.9257,-2.24924 1.9545,-3.59042 1.0776,-1.40492 3.972,-3.52691 3.972,-3.52691 0,0 -1.8337,-0.87325 -3.0473,-0.88402 -1.5015,-0.0133 -3.4541,1.14407 -3.4541,1.14407 0,0 0.017,-1.88192 0.6661,-3.75824 0.3322,-0.95994 0.9572,-1.91842 1.4536,-2.62266 0.5243,-0.74389 3.1624,-2.25983 4.0344,-3.35013 1.5069,-1.88424 1.3876,-1.75707 1.3876,-1.75707 0,0 -1.5411,-0.7933 -2.3816,-0.83948 -1.2302,-0.0676 -3.5997,0.83948 -3.5997,0.83948 0,0 0.9425,-3.6725 2.4317,-5.15094 0.6754,-0.67055 2.9657,-1.75073 4.2886,-2.79945 1.4246,-1.12937 1.8615,-2.20549 1.8615,-2.20549 0,0 -2.4423,-0.385 -3.3866,-0.98016 -1.1426,-0.72021 -2.3346,-2.92069 -2.3346,-2.92069 0,0 2.8285,0.29324 5.5585,-1.05641 3.6822,-1.82041 7.1283,-3.90954 11.3097,-3.8149 4.4279,0.10022 8.3572,1.75063 8.3572,1.75063 l -8.5818,14.04304 -5.2011,22.10478 2.3405,12.74276 z" fill="#ce4437" stroke="#a02c2c" stroke-width="0.95238096"/>
				<path d="m 1241.8394,805.32207 -2.25,2.48471 c 0.8302,0.19195 1.8732,-0.75511 2.695,-1.18841 0.6457,-0.34051 1.0806,-0.14098 1.6707,-0.32954 0.7055,-0.22545 1.7704,0.12197 3.0459,0.26002 0.499,0.054 0.5292,0.0667 0.9062,0.125 l -3.9688,7.15625 c -0.2736,-5.6e-4 -0.3721,0.007 -0.8437,0.0312 -0.8206,0.0424 -1.8053,0.0147 -2.6296,0.34043 -0.9476,0.37445 -2.1793,1.57742 -2.6909,2.42348 l -1.4548,2.40564 c 0,0 1.8255,-1.1288 2.5166,-1.71212 0.6912,-0.58338 1.4243,-1.25412 1.8731,-1.43148 0.3256,-0.12866 1.743,0.0122 2.4793,-0.0259 0.7364,-0.0381 1.3438,-0.0312 1.3438,-0.0312 l 0.5938,0 0.2812,-0.53125 4.9688,-8.90625 0.6562,-1.21875 -1.3438,-0.25 c 0,0 -1.0964,-0.22651 -2.4687,-0.375 -0.6862,-0.0742 -1.4617,-0.0638 -2.1875,-0.15625 -0.7865,-0.1002 -2.7074,0.39341 -3.1928,0.92947 z m 2.8178,16.41423 c 0,0 -2.6443,0.68912 -4.125,1.40625 -1.2934,0.62638 -3.6729,3.29322 -3.6729,3.29322 1.3825,-0.1836 2.0502,-0.94614 3.3886,-1.47196 1.2421,-0.48796 4.4158,0.045 5.7171,-0.35051 l -1.3078,-2.877 z" fill="#800000"/>
			</g>
			<path d="m 274.81183,67.542194 c -0.6007,-0.860751 -1.9404,-2.51286 -5.15445,-3.74557 -1.95279,-0.748976 -3.87828,-0.260117 -5.76345,-0.230822 -2.02104,0.0314 -3.94621,-0.440569 -4.27549,-2.765196 0,0 4.22415,-2.715258 5.54431,-5.010033 0.33527,-0.582739 0.80808,-1.407976 0.9828,-2.607444 0.15656,-1.075084 0.0357,-2.526384 -0.0147,-3.126805 -0.20286,-2.388897 -2.50498,-5.015976 -2.50498,-5.015976 0,0 -3.43455,-0.397572 -4.80827,-1.335611 -1.47063,-1.00423 -2.73661,-2.555983 -3.20544,-4.273972 -0.28308,-1.037138 0.35616,-3.205472 0.35616,-3.205472 l -5.2e-4,0 c -2.39054,-0.52228 -5.03454,-1.243011 -6.93935,-2.170066 -1.89105,-0.920357 -2.67771,-2.044077 -4.07137,-3.3789 0,0 4.39131,-6.057252 8.45953,-8.363692 3.20702,-1.81818 6.81954,-3.157298 10.47029,-3.66954 3.94674,-0.55376 8.17405,-0.158522 12.07804,0.642925 12.44357,2.554526 22.768,10.089923 29.26319,20.51472 12.0397,19.32377 14.50731,41.753793 11.94576,58.521542 -1.79555,11.753578 -6.72216,24.873848 -13.74495,35.004518 -9.82995,14.18015 -24.0592,23.67269 -42.13144,25.65805 29.08062,-20.91982 34.82604,-60.905183 13.51433,-91.442656 z" fill="#0c57da"/>
			<g transform="matrix(1.05,0,0,1.05,-1091.6214,-705.51123)">
				<path d="m 1274.2938,710.72361 c 19.2498,7.0409 12.4269,14.04276 -4.7789,11.86131 l 7.2042,6.60834 11.3803,-0.93281 5.181,-5.38977 -0.517,-10.46802 z" fill="#501616" stroke="#782121" stroke-width="0.95238096"/>
				<path d="m 1288.5234,712.82667 c 1.4414,3.61109 3.2235,6.28421 0.96,9.2329 -0.7004,0.91249 -1.7238,1.56496 -2.701,2.03883 -4.0407,1.95946 -10.2623,1.05664 -15.1425,-0.28118 -1.0408,-0.28531 -4.22,-2.23531 -4.22,-2.23531 l 0.3447,2.39833 c 0.3109,2.16327 4.0836,4.79502 6.2182,5.26386 3.6278,0.7968 7.2583,1.25147 11.0302,1.13637 1.9366,-0.0591 5.6478,-1.37378 5.6478,-1.37378 l 5.4951,-6.41095 -1.9844,-8.3953 -5.6477,-1.37377 z" fill="#0c57da" stroke="#083e9a" stroke-width="0.95238096"/>
				<path d="m 1289.583651,712.906516 c 0,0 -6.3395,3.41223 -10.5189,3.35626 -3.2439,-0.0435 -7.8212,0.36053 -10.9535,-0.48395 -3.7626,-1.0144 -6.9947,-1.87088 -9.6608,-4.71306 -0.9687,-1.0327 -2.2931,-4.79258 -1.6188,-5.99105 1.2404,-2.20453 9.7296,-2.91742 14.2631,-2.57799 0,0 2.6009,-1.7144 4.0475,-2.25595 1.5501,-0.58032 4.012,-1.27916 4.012,-1.27916 l 9.2576,5.39047 z" fill="#0c57da"/>
				<path d="m 1289.583741,712.906515 c -5.1929,2.75989 -12.5797,4.71742 -22.0306,2.76068 -3.816,-0.79008 -6.9688,-2.45487 -9.6349,-5.29705 -0.9687,-1.0327 -1.9841,-4.21559 -1.3098,-5.41406 1.2404,-2.20453 9.9529,-2.79879 14.4864,-2.45936 0,0 2.6009,-1.7144 4.0475,-2.25595 1.5501,-0.58032 4.012,-1.27916 4.012,-1.27916 l 9.2576,5.39047 z" fill="none" stroke="#083e9a" stroke-width="0.95238096"/>
				<path d="m 1271.040751,702.485006 c 0,0 0.3721,1.70514 0.8451,2.41466 0.5849,0.87734 1.4616,1.55155 2.3543,2.11283 1.4742,0.92693 4.8294,1.9921 4.8294,1.9921 0,0 -3.9079,-0.37046 -5.6745,-1.14697 -1.2528,-0.55064 -2.4356,-1.37051 -3.3201,-2.41466 -0.698,-0.82397 -1.4488,-2.8976 -1.4488,-2.8976 l 2.4146,-0.0604 0,4e-5 z" fill="#083e9a"/>
				<path d="m 1266.153841,706.212605 c 0.9611,0.28813 1.9374,2.30405 1.9374,2.30405 0,0 -1.4925,-0.97646 -2.3376,-1.21527 -0.8451,-0.23881 -2.6279,-0.18789 -2.6279,-0.18789 0,0 2.0193,-1.20327 3.0281,-0.90089 z" fill="#083e9a"/>
			</g>
			<path d="m 290.74766,141.0701 c 1.82154,-3.93746 3.57568,-8.26608 4.21767,-11.50198 1.93088,-9.73247 0.55342,-19.8982 -0.52214,-29.761889 -0.80846,-7.414187 -1.77539,-14.963219 -4.43817,-21.929809 -1.54518,-4.042623 -5.48377,-8.219717 -6.56912,-11.199109 -0.92305,-2.533881 -6.72157,-6.731508 -6.72157,-6.731508 0,0 1.74699,0.420725 1.77954,-0.06006 0.0542,-0.799596 -2.35043,-2.381064 -2.64747,-4.043119 -0.18848,-1.054746 -2.32386,-4.278173 -2.17581,-5.363043 0.23436,-1.717139 5.50819,3.601899 5.08053,2.45154 -0.31532,-0.848096 -0.80703,-3.9713 -1.59453,-5.451695 -0.59682,-1.122114 -2.57943,-2.129305 -3.32903,-3.000858 -0.41034,-0.477109 2.25761,-1.359865 1.97064,-1.752282 -0.76786,-1.050063 -2.13024,-1.721023 -3.0703,-2.075335 -3.66681,-1.381989 -13.6437,2.626375 -13.6437,2.626375 l -0.26712,0.427403 c 1.37371,0.938038 4.80826,1.33561 4.80826,1.33561 0,0 2.30213,2.627079 2.50499,5.015976 0.10783,1.270301 -0.33191,4.629177 -0.96758,5.73425 -1.32016,2.294764 -5.54431,5.010033 -5.54431,5.010033 0.32928,2.324626 2.25445,2.796591 4.27549,2.765196 1.88517,-0.02929 3.81066,-0.518154 5.76345,0.230821 3.21405,1.232711 4.74936,2.77725 5.15445,3.745571 l 6.57791,12.161718 3.13283,8.615283 2.87176,14.097731 0,13.05346 -3.65497,14.61987 -8.35422,15.92522 -14.09773,13.05346 8.61528,-1.30534 15.66416,-6.52674 9.12249,-7.37707 7.5188,-8.32437 5.63909,-8.86143 5.63909,-13.15789 c 0,0 -8.57465,13.57767 -13.42641,19.0655 -3.12846,3.53862 -9.31225,8.48851 -9.31225,8.48851 z" fill="#0a4fc2"/>
			<path d="m 279.57557,68.348578 c -1.23027,-2.030793 -3.48179,-5.523148 -5.21597,-7.144946 -1.28352,-1.200339 -3.26886,-3.55551 -3.26886,-3.55551 0,0 -1.87499,3.556161 -3.1373,3.965472 -0.91623,0.297097 -4.03578,1.741078 -5.75715,1.493268 -2.01043,-0.289422 -2.57785,-2.306262 -2.57785,-2.306262 0.32928,2.324626 2.25445,2.796591 4.27549,2.765196 1.88517,-0.02929 3.81066,-0.518154 5.76345,0.230821 3.21405,1.232711 4.74936,2.77725 5.15445,3.745571 0,0 4.61648,7.637859 6.57791,11.639581 1.28748,2.626757 2.55239,5.291468 3.39389,8.093142 1.35016,4.495214 2.17369,9.163453 2.6107,13.836659 0.39702,4.24561 0.48252,8.55565 0,12.79239 -0.65689,5.76788 -1.80575,11.56149 -3.91604,16.9695 -2.111,5.40984 -8.61528,15.14201 -8.61528,15.14201 l -13.31453,12.79239 6.52673,-0.78321 c 0,0 7.29162,-5.23696 10.18169,-8.61528 3.0464,-3.56107 5.32791,-7.76262 7.30995,-12.00918 2.40927,-5.16195 4.71788,-10.54131 5.48245,-16.18628 2.54159,-18.76521 -1.42732,-36.281684 -11.47373,-52.865332 z" fill="#0846aa"/>
			<path d="m 270.03912,37.609356 c 0,4.11114 -3.27897,7.443861 -7.32381,7.443861 -4.04484,0 -7.32382,-3.332721 -7.32382,-7.443861 0,-4.111117 3.27898,-7.443862 7.32382,-7.443862 2.20985,0 2.95299,1.332325 4.29581,2.905202 1.11504,1.306202 3.028,2.673521 3.028,4.53866 z" fill="#083e9a"/>
			<path d="m 244.63085,30.788786 3.35192,3.017689 7.46949,2.226641 c 0,0 5.66664,-6.011261 8.5827,-7.333977 3.80656,-1.726662 4.49347,-2.056677 8.66901,-1.864569 4.7566,0.218841 8.75658,1.483093 13.05192,3.537985 4.64971,2.224394 10.71814,6.148131 14.27816,9.875589 2.43191,2.546345 4.25408,5.644947 5.93135,8.740893 1.88107,3.472056 3.5163,8.192019 4.57852,11.99535 0.44336,1.587484 2.64056,9.799102 4.26867,18.683088 1.62812,8.883986 2.68715,17.371102 2.68715,17.371102 0.1883,-2.860211 0.25482,-5.804725 0.17192,-8.852696 -0.0829,-3.047973 0.91357,-4.765775 0.50411,-8.039816 -0.38496,-3.078241 -0.72168,-7.288887 -1.44276,-10.59982 -0.72107,-3.310931 -1.62169,-6.746167 -2.72487,-10.321626 l -3.49236,-9.127727 -3.88321,-8.077083 -2.26254,-3.777102 -4.83468,-5.733596 -3.54396,-3.683463 -5.03884,-2.778011 -3.51267,-2.369073 -5.34104,-2.756754 -5.29945,-1.712414 -6.29948,-1.131553 -8.12773,0.417931 -6.83183,2.318757 -4.85877,3.156647 -3.2257,3.207603 z" fill="#3f77f1"/>
			<path d="m 263.41944,31.395646 c -3.09303,0 -6.27881,3.09973 -6.27881,6.206412 0,3.106684 2.50801,5.617064 5.60103,5.617064 3.09303,0 5.54339,-2.505383 5.54339,-5.617064 0,-3.111679 -1.77259,-6.206412 -4.86561,-6.206412 z" fill="#fff"/>
			<g transform="matrix(1.2435197,0,0,1.2435197,-1312.3802,-868.11747)">
				<ellipse cx="1265.61701" cy="728.214271" rx="1.7640833" ry="2.5256095" fill="#fff"/>
				<path d="m 1266.62601,725.142551 c -1.8485,0 -3.3438,1.45223 -3.3438,3.25 0,1.79777 1.4953,3.25 3.3438,3.25 1.8484,0 3.3437,-1.45223 3.3437,-3.25 0,-1.79777 -1.4953,-3.25 -3.3437,-3.25 z m -0.4423,0.99436 c 0.6797,0 -0.2453,1.14673 -0.2453,2.10503 0,0.9583 0.8189,1.82631 0.214,2.13629 -0.3565,0.18269 -0.9675,0.15166 -1.3922,-0.37505 -0.3852,-0.47763 -0.603,-1.4195 -0.603,-1.92313 0,-0.42955 0.3041,-1.02273 0.6161,-1.37304 0.452,-0.50772 1.0081,-0.68064 1.4104,-0.5701 z" fill="#1a1a1a"/>
			</g>
			<path d="m 244.99982,30.624723 3.78861,3.315092 4.93889,1.488406 4.32988,-0.541233 6.02133,-5.209428 c -6.14439,2.082024 -12.09516,3.916931 -16.30492,-2.232646 l -2.77379,3.179778 0,3.1e-5 z" fill="#0c57da"/>
			<path d="m 264.07549,28.622741 -0.82026,0.557812 c -1.59243,1.083044 -3.21405,2.352 -4.69224,3.478125 -0.68061,0.518511 -1.78364,1.49982 -3.08511,1.859351 -1.52502,0.42127 -3.24681,0.190743 -3.74598,0.387576 l 3.89739,1.444695 -0.0525,0.705253 c 1.35891,-0.535888 2.75289,-1.570957 4.26562,-2.723437 1.26557,-0.964131 2.45931,-1.694448 3.72645,-2.604924 0.37485,0.475314 0.83822,0.725182 1.78605,1.784611 0.65657,0.733866 1.3797,1.817603 2.1,2.471091 0.7203,0.653489 1.05011,0.866408 1.8248,1.171097 1.92937,0.758835 4.70935,0.747789 6.70645,0.623437 1.63107,-0.101535 2.47863,-0.253575 2.92026,-0.328125 1.10849,1.32699 1.85115,2.557643 1.73912,3.4125 l -0.0651,0.623438 0.49224,0.360937 c 1.42201,1.035689 3.16323,0.761345 4.62651,0.525 0.33663,-0.05439 0.51166,0.490949 0.55776,0.7875 0.44688,2.876601 3.42121,4.165697 4.8552,4.003125 -0.73343,-0.907231 -1.88675,-0.454671 -2.625,-2.920312 -0.1008,-0.334845 -0.0336,-0.806925 -0.16401,-1.476563 -0.14784,-0.759496 -0.61436,-1.682908 -1.575,-2.395312 l -0.5901,-0.426563 -0.59063,0.39375 c -1.05241,0.657227 -1.867,0.592988 -2.8875,-0.03276 -0.12925,-1.773681 -1.30746,-3.280242 -2.52651,-4.659375 l -0.39375,-0.459375 -0.59073,0.13125 c 0,0 -1.45015,0.244892 -3.31401,0.360938 -1.86385,0.116046 -4.1286,0.05911 -5.44687,-0.459375 -0.27573,-0.108455 -0.90678,-0.539186 -1.54214,-1.115625 -0.63546,-0.57644 -1.31019,-1.302095 -1.93599,-2.001563 -1.2516,-1.398925 -2.26401,-2.690625 -2.26401,-2.690625 l -0.59073,-0.7875 0,-5.2e-5 3.2e-4,0 z" fill="#083e9a"/>
			<path d="m 269.70748,40.823793 c 0,0 1.23102,0.893235 1.9153,0.95676 0.68418,0.06363 1.49163,0.191688 1.87026,0.328125 0.22323,0.08043 0.68681,0.36812 1.08276,0.623438 l -2.19838,1.18125 -1.54214,0.7875 1.60776,0.623437 2.92026,1.115625 c 0.77679,0.298757 1.58424,1.722693 2.06724,3.182813 0.1995,0.603141 0.26628,1.208466 0.42651,2.132812 -0.74235,-0.688579 -1.50286,-1.425144 -1.96875,-1.771875 -1.69827,-1.264126 -3.60927,-0.689062 -3.60927,-0.689062 l -1.27974,0.426562 0.98438,0.91875 c 0,0 1.46695,1.411778 2.39536,3.051563 0.16538,0.29211 0.26124,0.707269 0.32802,1.246875 0.0672,0.539605 0.1259,1.191729 0.45948,1.8375 0.39659,0.76797 1.11195,1.639774 1.77177,2.395312 0.0997,0.114597 0.10185,0.09104 0.19698,0.196875 -0.26166,0.03013 -0.25441,0.04284 -0.55786,0.06562 -1.10628,0.08316 -2.44398,0.02793 -2.85464,-0.164062 -0.18595,-0.08694 -0.76251,-0.522869 -1.21411,-0.885938 -0.45161,-0.363069 -0.82037,-0.689062 -0.82037,-0.689062 l -0.82026,-0.721875 -0.42651,1.017187 c 0,0 -0.18112,0.468563 -0.45948,1.017188 -0.27825,0.548625 -0.67756,1.187203 -0.88588,1.378125 -0.37286,0.341796 -1.36605,0.846331 -2.19839,1.18125 -0.83244,0.334918 -5.51964,1.560342 -5.51964,1.560342 l 4.46964,0.506845 c 0,0 0.74036,-0.26124 1.64052,-0.623437 0.90027,-0.362198 1.94103,-0.78665 2.65787,-1.44375 0.55219,-0.506205 0.93555,-1.223702 1.24687,-1.8375 0.043,-0.08579 0.0263,-0.08306 0.0651,-0.164063 0.0367,0.03024 0.0273,0.03475 0.0651,0.06562 0.48353,0.388784 1.01294,0.802536 1.54224,1.05 1.06964,0.500136 2.41227,0.418058 3.60927,0.328125 1.19711,-0.08988 2.19849,-0.2625 2.19849,-0.2625 l 1.47651,-0.2625 -1.05,-1.05 c 0,0 -0.55009,-0.589911 -1.18125,-1.3125 -0.63105,-0.722589 -1.34316,-1.618543 -1.575,-2.067187 -0.15823,-0.306359 -0.22722,-0.763781 -0.29526,-1.3125 -0.0683,-0.54872 -0.12957,-1.197053 -0.49224,-1.8375 -0.60606,-1.070643 -0.94489,-1.282103 -1.50927,-1.903125 0.23615,0.07948 0.44363,0.04704 0.68901,0.229687 0.32445,0.241553 1.2914,1.117977 2.1,1.870313 0.80861,0.752335 1.50938,1.410937 1.50938,1.410937 l 1.60786,1.575 -0.29536,-2.23125 c 0,0 -0.37685,-3.087 -0.91875,-4.725 -0.53382,-1.613902 -1.31376,-3.511452 -3.01875,-4.167187 l -1.27964,-0.492188 1.80464,-0.951562 1.08286,-0.590625 -0.98448,-0.721875 c 0,0 -0.36151,-0.320639 -0.85302,-0.65625 -0.49161,-0.335612 -1.05924,-0.709202 -1.64073,-0.91875 -0.68943,-0.248472 -1.58592,-0.597209 -2.29677,-0.39375 l -2.0455,0.585427 z" fill="#083e9a"/>
			<path d="m 303.18799,44.832116 c 0,0 1.21968,1.721958 1.50948,2.920312 0.22281,0.921963 0.37348,1.72955 -0.36099,2.329688 -0.44237,0.361431 -0.71358,0.392322 -2.13276,0 -1.0541,-0.291354 -2.69073,-2.75625 -2.69073,-2.75625 l 0.45948,2.034375 c 0.20916,0.808899 1.27197,1.520904 2.39526,1.903125 0.33925,0.512074 1.02133,1.52818 1.24687,2.460937 0.22292,0.921963 0.37349,1.72955 -0.36088,2.329688 -0.44237,0.361431 -0.71358,0.392322 -2.13287,0 -1.05399,-0.291354 -2.65786,-2.75625 -2.65786,-2.75625 l 0.42661,2.034375 c 0.40982,1.584292 4.13868,2.822284 5.08589,1.870312 1.17085,-1.176598 0.7057,-2.532505 0.16411,-4.101562 -0.24423,-0.70748 -0.80251,-1.288959 -1.27963,-1.70625 0.91087,0.226369 1.77271,0.230706 2.16552,-0.164063 1.17085,-1.176598 0.73846,-2.532505 0.19698,-4.101562 -0.45465,-1.317173 -2.03448,-2.296875 -2.03448,-2.296875 z" fill="#083e9a"/>
			<path d="m 305.94424,56.349303 c 0,0 1.21968,1.721958 1.50948,2.920313 0.22281,0.921963 0.37348,1.729549 -0.36099,2.329687 -0.44237,0.361431 -0.71358,0.392322 -2.13276,0 -1.0541,-0.291354 -2.65787,-2.75625 -2.65787,-2.75625 l 0.42662,2.034375 c 0.40981,1.584293 4.13857,2.822285 5.08588,1.870313 1.17086,-1.176599 0.7056,-2.532506 0.16412,-4.101563 -0.45465,-1.317172 -2.03448,-2.296875 -2.03448,-2.296875 z" fill="#083e9a"/>
			<path d="m 284.1005,62.253802 c 0,0 1.21968,1.75477 1.50937,2.953125 0.22292,0.921963 0.37349,1.696737 -0.36088,2.296875 -0.44237,0.361431 -0.71358,0.392322 -2.13287,0 -1.05399,-0.291354 -2.65786,-2.75625 -2.65786,-2.75625 l 0.45948,2.067187 c 0.40982,1.584293 4.10581,2.789472 5.05302,1.8375 1.17096,-1.176598 0.73846,-2.499693 0.19698,-4.06875 -0.45465,-1.317172 -2.06724,-2.329687 -2.06724,-2.329687 z" fill="#083e9a"/>
			<path d="m 285.77399,70.785052 c 0,0 1.21957,1.721958 1.50927,2.920312 0.22292,0.921963 0.37359,1.72955 -0.36089,2.329688 -0.44236,0.361431 -0.71358,0.392322 -2.13286,0 -1.05388,-0.291354 -2.65776,-2.75625 -2.65776,-2.75625 l 0.42651,2.034375 c 0.40992,1.584292 4.13868,2.822284 5.08599,1.870312 1.17085,-1.176598 0.7056,-2.532505 0.16401,-4.101562 -0.45455,-1.317173 -2.03427,-2.296875 -2.03427,-2.296875 z" fill="#083e9a"/>
			<g transform="matrix(1.05,0,0,1.05,-5.5252502,0.37431801)">
				<path d="m 301.23602,87.618324 -1.61461,1.201587 c -1.19415,0.973873 -0.79041,4.606331 0.37897,5.114217 l -0.99851,0.76486 c -0.63271,0.516102 -0.8134,1.782361 -0.67736,2.930679 -0.36923,0.52798 -0.86823,1.1648 -1.32892,1.52851 -0.70925,0.55977 -1.33192,0.999933 -2.14346,0.6032 -0.48902,-0.23891 -0.60662,-0.46064 -0.8322,-1.84477 -0.16716,-1.027933 1.31839,-3.404024 1.31839,-3.404024 l -1.58397,1.195693 c -1.2078,0.984983 -0.81582,4.704004 0.38497,5.144894 1.48374,0.545 2.48483,-0.40023 3.62696,-1.493173 0.29688,-0.28409 0.49173,-0.64866 0.66324,-1.0186 0.18764,0.7373 0.5199,1.34184 0.95732,1.50248 1.48393,0.544963 2.48502,-0.40026 3.62696,-1.49317 0.95906,-0.917534 1.172,-2.67577 1.172,-2.67577 0,0 -1.02111,1.746487 -1.94269,2.47395 -0.70905,0.55973 -1.33192,0.99994 -2.14336,0.60319 -0.48922,-0.23888 -0.60672,-0.46063 -0.83221,-1.844775 -0.11965,-0.7386 0.57808,-2.148125 1.00195,-2.897642 1.35353,0.367302 2.28399,-0.504671 3.36385,-1.538029 0.95886,-0.917499 1.20265,-2.681661 1.20265,-2.681661 0,0 -1.02112,1.746482 -1.9427,2.47395 -0.70905,0.559724 -1.33191,0.999931 -2.14336,0.603181 -0.48912,-0.238897 -0.63745,-0.454715 -0.86284,-1.838873 -0.16716,-1.027939 1.34893,-3.409904 1.34893,-3.409904 z" fill="#083e9a"/>
				<path d="m 291.39627,101.31711 -1.58397,1.19569 c -1.20761,0.98495 -0.78508,4.69809 0.4157,5.13898 0.55632,0.2044 1.02598,0.20658 1.47646,0.0661 l -0.0805,0.0791 c -1.03324,0.84264 -0.85768,3.67259 -0.0412,4.74951 -0.29629,0.48045 -0.93975,1.49494 -1.67001,2.07146 -0.70914,0.55974 -1.33191,0.99993 -2.14345,0.6032 -0.48902,-0.23892 -0.63736,-0.45474 -0.86285,-1.83888 -0.16716,-1.02794 1.3183,-3.40401 1.3183,-3.40401 l -1.58397,1.19569 c -1.20771,0.98496 -0.78508,4.69809 0.4157,5.13898 1.48384,0.54498 2.45429,-0.39435 3.59622,-1.48725 0.62717,-0.59998 0.91486,-1.51638 1.05759,-2.11278 0.10202,0.10158 0.21059,0.17951 0.32926,0.22307 1.48395,0.54496 2.4542,-0.39433 3.59632,-1.48727 0.95887,-0.9175 1.20265,-2.68166 1.20265,-2.68166 0,0 -1.02111,1.74648 -1.9427,2.47395 -0.70905,0.55972 -1.3318,0.99991 -2.14345,0.6032 -0.48893,-0.23893 -0.60661,-0.46065 -0.83211,-1.84479 -0.14307,-0.88147 0.86,-2.66831 1.16958,-3.18447 0.23837,-0.20716 0.48778,-0.41456 0.73408,-0.65036 0.95906,-0.91753 1.20275,-2.68168 1.20275,-2.68168 -2e-4,4e-5 -1.02121,1.74651 -1.9427,2.47395 -0.70915,0.55975 -1.33191,0.99994 -2.14345,0.6032 -0.48902,-0.23891 -0.63736,-0.45473 -0.86285,-1.83887 -0.16716,-1.02794 1.3183,-3.40401 1.3183,-3.40401 z" fill="#083e9a"/>
				<path d="m 287.61856,118.24149 -1.58387,1.19567 c -1.20781,0.98499 -0.82163,4.6733 0.37896,5.11423 1.48404,0.54494 2.46019,-0.36368 3.60232,-1.45661 0.95877,-0.91748 1.19665,-2.71233 1.19665,-2.71233 0,0 -1.02091,1.74645 -1.9427,2.47395 -0.70885,0.55969 -1.3259,1.0306 -2.13745,0.63387 -0.48902,-0.23891 -0.60672,-0.46062 -0.83211,-1.84479 -0.16716,-1.02794 1.3182,-3.40399 1.3182,-3.40399 z" fill="#083e9a"/>
			</g>
			<path d="m 274.81183,67.542193 c -0.6007,-0.860751 -1.9404,-2.51286 -5.15445,-3.74557 -1.95279,-0.748976 -3.87828,-0.260117 -5.76345,-0.230822 -2.02104,0.03139 -3.94621,-0.440569 -4.27549,-2.765196 0,0 4.22415,-2.715258 5.54431,-5.010033 0.33527,-0.582739 0.80808,-1.407976 0.9828,-2.607444 0.15656,-1.075084 0.0357,-2.526384 -0.0147,-3.126805 -0.20286,-2.388897 -2.50498,-5.015976 -2.50498,-5.015976 0,0 -3.43455,-0.397572 -4.80827,-1.335611 -1.47063,-1.00423 -2.73661,-2.555983 -3.20544,-4.273972 -0.28308,-1.037138 0.35616,-3.205472 0.35616,-3.205472 l -5.2e-4,0 c -2.39054,-0.52228 -5.03454,-1.243011 -6.93935,-2.170066 -1.89105,-0.920357 -2.67771,-2.044077 -4.07137,-3.3789 0,0 4.39131,-6.057251 8.45953,-8.363691 3.20702,-1.81818 6.81954,-3.157298 10.47029,-3.66954 3.94674,-0.55376 8.17405,-0.158522 12.07804,0.642925 12.44357,2.554526 22.768,10.089921 29.26319,20.514719 12.0397,19.32377 14.50731,41.753793 11.94576,58.521541 -1.79555,11.75358 -6.72216,24.87385 -13.74495,35.00452 -9.82995,14.18015 -24.0592,23.67269 -42.13144,25.65805 29.08062,-20.91982 34.82604,-60.905184 13.51433,-91.442657 z" fill="none" stroke="#083e9a" stroke-width="1"/>
			<g transform="matrix(-0.69776724,-0.78461511,0.78461511,-0.69776724,440.47664,1609.6184)">
				<path d="m 1139.0287,811.23328 4.5374,-1.40176 c 3.1352,-0.96857 5.3597,-3.8727 8.2635,-3.92438 1.1763,-0.0209 2.0327,-0.0254 3.2469,-0.0238 4.3963,0.006 10.5757,1.25099 15.1806,1.0779 5.7798,-0.21726 9.9632,-2.0792 15.0603,-4.74046 2.7275,-1.85503 5.0012,-3.92956 6.6248,-7.03174 1.1112,-2.12311 1.5932,-5.0026 2.357,-7.71518 0.6932,-2.46236 3.9685,-5.60407 3.9685,-5.60407 0,0 -3.2227,0.32464 -5.1214,1.36575 -1.7169,0.94144 -2.4653,1.4469 -3.2437,3.24363 -0.4614,1.06501 0.5346,3.43777 -0.6829,4.09723 l -4.0972,2.21933 c -2.3388,0.97171 -3.9985,0.92484 -5.2665,0.29028 -1.5624,-0.78195 -2.53,-2.45632 -3.4401,-4.21679 -4.0375,1.5476 -6.8002,1.56539 -8.7786,0.64214 -2.2008,-1.02697 -3.4312,-3.2183 -4.3666,-5.76367 -4.7863,0.41894 -7.4656,-0.83011 -8.9846,-2.99776 -1.9297,-2.75365 -0.7918,-6.30681 -0.9171,-10.48894 0,0 -3.221,-2.43191 -3.7791,-4.24139 -0.5106,-1.65553 0.7314,-2.90905 1.1451,-5.16154 0.5477,-2.98191 1.1642,-5.24689 -0.2682,-7.1567 l -2.5607,-3.41435 c 0,0 0.6329,4.08665 0,5.97512 -1.1103,3.31294 -6.0539,7.8003 -6.4873,11.26737 0,0 -1.2425,2.76395 -1.195,5.97513 0.049,3.33967 0.4711,6.34217 1.3657,9.56018 0.7245,2.60646 2.8924,5.88144 3.4144,8.53589 0.527,2.68016 0.7574,5.57008 0,8.19446 -0.5034,1.74445 -1.9226,3.08069 -2.9022,4.60937 -0.8431,1.31562 -1.4115,2.31921 -1.8779,3.58507 l -1.1951,3.24365 0,3e-5 z" fill="#ce4437"/>
				<path d="m 1151.0625,775.3326 c -0.4069,0.82831 -0.8556,2.36688 -1.0625,3.2299 -0.4789,1.9973 -0.4329,4.01888 -0.375,5.90625 0.091,2.96983 0.8689,5.71272 1.0312,8.375 0.1038,1.70019 0.3194,3.29802 0.031,4.6875 -0.3564,1.71866 -1.0096,3.43533 -2.0313,4.71875 -0.256,0.32161 -1.052,1.63967 -1.6874,2.13437 l -4.1866,3.25936 c 0,0 4.5397,-1.87373 5.2803,-2.36248 0.7406,-0.48875 1.5759,-1.05212 2.1563,-1.78125 1.2959,-1.62788 2.0383,-3.63752 2.4374,-5.5625 0.3821,-1.84232 0.097,-3.59327 0,-5.1875 -0.1796,-2.94572 -0.9502,-5.69778 -1.0312,-8.34375 -0.057,-1.87355 -0.086,-3.71332 0.3125,-5.375 0.1259,-0.52483 0.5642,-1.49804 0.9375,-2.28125 0.3733,-0.78321 0.6875,-1.40625 0.6875,-1.40625 l -0.3398,-3.54104 c 1.8071,-3.60153 -1.3,1.77924 -2.1599,3.52989 z" fill="#8d0101"/>
				<path d="m 1144.4964,765.83396 c 0,0 0.4125,3.24947 0.4505,4.04104 0.038,0.79157 -0.7494,1.77906 -0.8534,2.1875 -0.1334,0.54183 -0.468,1.0943 -0.9063,1.75 -0.4383,0.6557 -0.9697,1.39261 -1.25,2.34375 -0.4669,1.58434 -0.6535,3.76702 -0.75,5.625 -0.097,1.85798 -0.094,1.74779 -0.094,1.74779 l 2,1.62721 c 0,0 4e-4,-1.45367 0.094,-3.25 0.093,-1.79633 0.2994,-3.97665 0.6563,-5.1875 0.1616,-0.54869 0.5538,-1.11386 1,-1.78125 0.4461,-0.66739 0.9472,-1.42976 1.1874,-2.40625 0.2147,-0.87248 0.5524,-2.62867 0.1563,-3.40088 l -1.6908,-3.29641 z" fill="#8d0101"/>
				<path d="m 1157.1379,790.47412 c -0.4003,0.75262 -0.3491,1.65951 -0.4063,2.29598 -0.057,0.63647 -0.1422,2.29815 -0.3124,2.59953 l -1.9156,3.39331 c 0,0 0.9558,-0.70035 1.5589,-1.20044 0.6031,-0.50009 1.311,-1.08092 1.75,-1.8125 0.4666,-0.77777 0.5323,-1.59764 0.5937,-2.28125 0.062,-0.68361 0.1026,-1.25481 0.25,-1.625 0.1879,-0.47131 0.312,-1.49031 0.9576,-1.98169 0.6457,-0.49138 2.1951,-1.32366 2.1951,-1.32366 -3.2928,0.12145 -3.7237,0.15483 -4.671,1.93572 z" fill="#8d0101"/>
				<path d="m 1173.5938,794.125 c -0.5992,0.24011 -1.4679,0.23753 -2.4688,0.21875 -1.0009,-0.0188 -2.1313,-0.077 -3.25,0.34375 -1.2918,0.4858 -2.1893,1.35651 -2.9688,2.125 -0.7794,0.76849 -1.4743,1.45967 -2.3124,1.90625 -0.5295,0.28211 -1.6697,1.37689 -2.5626,1.74285 l -5.0007,2.04955 c 0,0 4.5083,-0.71906 5.5007,-0.9799 0.9925,-0.26084 2.1301,-0.59894 3,-1.0625 1.1892,-0.63365 2.0328,-1.51201 2.7813,-2.25 0.7485,-0.73799 1.3917,-1.33347 2.25,-1.65625 0.611,-0.22975 1.493,-0.23764 2.5,-0.21875 1.007,0.0189 2.1651,0.0723 3.2813,-0.375 0.6829,-0.27371 1.1099,-1.05408 1.5,-1.45044 0.39,-0.39636 3.5852,-0.31608 3.5852,-0.31608 -1.4398,-1.19952 -4.8737,-1.15226 -5.8352,-0.0772 z" fill="#8d0101"/>
				<path d="m 1139.0287,811.23328 4.8932,-1.22384 c 3.1834,-0.79618 5.0039,-4.05062 7.9077,-4.1023 1.1763,-0.0209 2.0327,-0.0254 3.2469,-0.0238 4.3963,0.006 10.5757,1.25099 15.1806,1.0779 5.7798,-0.21726 9.9632,-2.0792 15.0603,-4.74046 2.7275,-1.85503 5.0012,-3.92956 6.6248,-7.03174 1.1112,-2.12311 1.5932,-5.0026 2.357,-7.71518 0.6932,-2.46236 3.9685,-5.60407 3.9685,-5.60407 0,0 -3.2227,0.32464 -5.1214,1.36575 -1.7169,0.94144 -2.4653,1.4469 -3.2437,3.24363 -0.4614,1.06501 0.5346,3.43777 -0.6829,4.09723 l -4.0972,2.21933 c -2.3388,0.97171 -3.9985,0.92484 -5.2665,0.29028 -1.5624,-0.78195 -2.53,-2.45632 -3.4401,-4.21679 -4.0375,1.5476 -6.8002,1.56539 -8.7786,0.64214 -2.2008,-1.02697 -3.4312,-3.2183 -4.3666,-5.76367 -4.7863,0.41894 -7.4656,-0.83011 -8.9846,-2.99776 -1.9297,-2.75365 -0.7918,-6.30681 -0.9171,-10.48894 0,0 -3.221,-2.43191 -3.7791,-4.24139 -0.5106,-1.65553 0.7314,-2.90905 1.1451,-5.16154 0.5477,-2.98191 1.1642,-5.24689 -0.2682,-7.1567 l -2.5607,-3.41435 c 0,0 0.6329,4.08665 0,5.97512 -1.1103,3.31294 -6.0539,7.8003 -6.4873,11.26737 0,0 -1.2425,2.76395 -1.195,5.97513 0.049,3.33967 0.4711,6.34217 1.3657,9.56018 0.7245,2.60646 2.8924,5.88144 3.4144,8.53589 0.527,2.68016 0.7574,5.57008 0,8.19446 -0.5034,1.74445 -1.9226,3.08069 -2.9022,4.60937 -0.8431,1.31562 -1.4115,2.31921 -1.8779,3.58507 l -1.1951,3.24365 0,3e-5 z" fill="none" stroke="#a02c2c" stroke-width="0.95238096"/>
			</g>
			<g transform="matrix(1.05,0,0,1.05,-896.00386,-676.38267)">
				<path d="m 1127.2628,702.0744 c 0,0 3.5387,5.23377 4.2814,7.80723 1.0242,3.54891 0.7427,6.20368 0,9.82199 -0.3856,1.87883 -1.6292,5.42471 -2.0148,7.30354 -0.4389,2.13809 -0.1184,3.6707 1.0074,5.5406 1.6658,2.76678 7.3035,4.78508 7.3035,4.78508 0,0 -2.849,-3.62154 -3.0221,-5.79246 -0.211,-2.64628 2.5184,-7.55538 2.5184,-7.55538 0,0 0.7746,2.52609 1.763,3.274 1.2344,0.93402 4.5332,1.00739 4.5332,1.00739 0,0 -2.4573,-3.1465 -2.7703,-5.03692 -0.2367,-1.42971 0.1143,-2.98176 0.7555,-4.28139 0.6046,-1.22556 2.0165,-1.88228 2.7703,-3.02215 0.5595,-0.84608 1.2593,-2.77031 1.2593,-2.77031 0,0 2.1638,-0.0163 3.121,-0.34131 1.1817,-0.40125 2.6714,-1.9253 2.6714,-1.9253 0,0 -4.6053,-1.01726 -6.548,-2.26661 -2.0476,-1.31684 -3.1033,-2.26924 -4.7851,-4.02954 -1.9276,-2.01777 -7.3035,-7.30353 -7.3035,-7.30353 0,0 -1.878,-0.57825 -3.274,0 -0.6581,0.27259 -1.1821,0.87925 -1.5111,1.51107 -0.6692,1.28539 -0.7555,3.274 -0.7555,3.274 z" fill="#ce4437"/>
				<path d="m 1131.75,701.31309 c 0,0 3.455,3.15028 4.875,4.59316 1.752,1.78023 2.74,4.54878 5,6.28125 0.6393,0.49014 0.977,0.81059 1.7818,1.0625 0.4241,0.13275 0.7959,0.4579 0.8657,1.20344 0.063,0.66922 -0.1565,1.77319 -0.1565,1.77319 l 1.0911,-2.84915 2.4889,-0.68998 c 0,0 -2.623,-0.13694 -3.3835,-0.375 -0.7605,-0.23806 -1.6476,-0.58819 -2.0625,-0.90625 -1.947,-1.49261 -3.4363,-5.56438 -5.796,-7.07725 l -4.704,-3.01591 z m 3.9375,10.34316 c 0,0 1.3573,2.08859 1.8437,3.375 0.5644,1.49281 0.3356,3.53434 0.1563,5.3125 -0.1704,1.69074 -1.0625,4.34375 -1.0625,4.34375 l 1.0786,0.18875 0.9464,1.80438 c 0,0 -0.3789,-2.25822 -0.4145,-3.62211 -0.027,-1.03708 0.4672,-1.88925 0.5509,-2.71988 0.1777,-1.76286 0.6482,-4.95964 -0.7443,-6.34316 l -2.3546,-2.33923 z" fill="#8d0101"/>
				<path d="m 1127.2628,702.0744 c 0,0 3.5387,5.23377 4.2814,7.80723 1.0242,3.54891 0.7427,6.20368 0,9.82199 -0.3856,1.87883 -1.6292,5.42471 -2.0148,7.30354 -0.4389,2.13809 -0.1184,3.6707 1.0074,5.5406 1.6658,2.76678 7.3035,4.78508 7.3035,4.78508 0,0 -2.849,-3.62154 -3.0221,-5.79246 -0.211,-2.64628 2.5184,-7.55538 2.5184,-7.55538 0,0 0.7746,2.52609 1.763,3.274 1.2344,0.93402 4.5332,1.00739 4.5332,1.00739 0,0 -2.4573,-3.1465 -2.7703,-5.03692 -0.2367,-1.42971 0.1143,-2.98176 0.7555,-4.28139 0.6046,-1.22556 2.0165,-1.88228 2.7703,-3.02215 0.5595,-0.84608 1.2593,-2.77031 1.2593,-2.77031 0,0 2.1638,-0.0163 3.121,-0.34131 1.1817,-0.40125 2.6714,-1.9253 2.6714,-1.9253 0,0 -4.6053,-1.01726 -6.548,-2.26661 -2.0476,-1.31684 -3.1033,-2.26924 -4.7851,-4.02954 -1.9276,-2.01777 -7.3035,-7.30353 -7.3035,-7.30353 0,0 -1.878,-0.57825 -3.274,0 -0.6581,0.27259 -1.1821,0.87925 -1.5111,1.51107 -0.6692,1.28539 -0.7555,3.274 -0.7555,3.274 z" fill="none" stroke="#a02c2c" stroke-width="0.95238096"/>
			</g>
		</g>
	</g>
	<use xlink:href="#q1" x="300" y="195"/>
	<use xlink:href="#q2" x="-300" y="195"/>
</svg>