<?xml version="1.0" encoding="UTF-8" standalone="no"?>
<!-- Created with Inkscape (http://www.inkscape.org/) -->
<svg
   xmlns:svg="http://www.w3.org/2000/svg"
   xmlns="http://www.w3.org/2000/svg"
   version="1.0"
   width="359.57999"
   height="216.187"
   viewBox="0 0 359.58 216.187"
   id="svg18523"
   xml:space="preserve"><defs
   id="defs18552" />
	
		<g
   id="flag">
			<rect
   width="359.57999"
   height="216.187"
   x="0"
   y="0"
   style="fill:#009"
   id="blue" /> 
			<path
   d="M 359.58,22.583 L 321.271,22.583 C 321.082,28.34 321.203,32.208 322.035,39.507 C 322.842,46.583 325.183,65.613 325.183,65.613 C 325.183,65.613 320.451,65.342 317.535,65.342 C 314.619,65.342 309.885,65.613 309.885,65.613 C 309.885,65.613 312.23,46.583 313.035,39.507 C 313.867,32.207 313.988,28.34 313.799,22.583 L 183.526,22.583 C 183.337,28.34 183.458,32.208 184.29,39.507 C 185.097,46.583 187.44,65.613 187.44,65.613 C 187.44,65.613 182.707,65.342 179.79,65.342 C 176.873,65.342 172.139,65.613 172.139,65.613 C 172.139,65.613 174.483,46.583 175.289,39.507 C 176.121,32.207 176.242,28.34 176.053,22.583 L 45.782,22.583 C 45.593,28.34 45.714,32.208 46.546,39.507 C 47.353,46.583 49.696,65.613 49.696,65.613 C 49.696,65.613 44.962,65.342 42.046,65.342 C 39.13,65.342 34.395,65.613 34.395,65.613 C 34.395,65.613 36.739,46.583 37.545,39.507 C 38.377,32.207 38.498,28.34 38.309,22.583 L 0,22.583 L 0,15.199 L 359.58,15.199 L 359.58,22.583 z "
   style="fill:white"
   id="brigde" />
			<g
   id="_x33_">
				<path
   d="M 179.792,213.917 C 181.375,212.2 184.167,208.827 185.305,205.258 C 186.573,201.27 186.006,195.609 185.699,193.32 C 192.103,196.096 196.638,196.421 201.573,194.437 C 201.573,194.437 202.841,193.927 202.845,193.929 L 200.715,193.017 C 197.298,191.572 191.645,189.159 189.105,180.228 L 198.444,180.228 L 198.444,173.887 L 194.334,173.887 C 194.786,161.308 201.923,154.277 207.012,154.038 C 209.523,153.922 211.14,155.431 211.453,158.182 C 211.902,162.346 209.53,167.793 209.506,167.849 L 208.959,169.085 L 210.227,168.606 C 216.818,166.113 222.462,161.863 226.553,156.316 C 233.399,147.033 231.118,137.103 225.329,132.09 C 219.856,127.356 210.432,126.435 201.706,135.053 C 191.474,145.165 186.662,165.252 186.326,173.884 L 184.947,173.884 C 184.894,163.549 184.93,157.151 190.178,143.651 C 198.965,121.063 195.443,101.631 179.792,85.848 C 164.137,101.631 160.617,121.063 169.401,143.654 C 174.65,157.151 174.683,163.55 174.631,173.884 L 173.251,173.884 C 172.919,165.255 168.104,145.165 157.873,135.056 C 149.148,126.438 139.722,127.356 134.249,132.093 C 128.459,137.106 126.18,147.035 133.027,156.319 C 137.118,161.863 142.762,166.116 149.35,168.609 L 150.619,169.088 L 150.073,167.849 C 150.048,167.796 147.677,162.348 148.127,158.182 C 148.44,155.434 150.058,153.922 152.566,154.041 C 157.657,154.279 164.792,161.308 165.246,173.887 L 161.136,173.887 L 161.136,180.231 L 170.473,180.231 C 167.932,189.162 162.28,191.572 158.861,193.017 L 156.732,193.929 C 156.737,193.927 158.006,194.437 158.006,194.437 C 162.939,196.42 167.475,196.098 173.88,193.322 C 173.572,195.611 173.005,201.272 174.275,205.258 C 175.413,208.827 178.206,212.2 179.792,213.917 z "
   id="path11053" />
				<rect
   width="35.033001"
   height="4.066"
   x="162.27299"
   y="175.024"
   style="fill:#ffd700"
   id="rect11055" /> 
				<path
   d="M 166.385,173.887 L 172.115,173.887 C 171.778,165.405 167.07,145.742 157.075,135.863 C 148.304,127.198 139.698,128.879 134.993,132.954 C 129.598,137.622 127.504,146.916 133.941,155.645 C 137.645,160.665 142.675,164.571 148.529,167.036 C 147.819,165.1 146.649,161.304 146.999,158.061 C 147.376,154.738 149.53,152.763 152.622,152.907 C 157.952,153.157 165.911,160.007 166.385,173.887 z "
   style="fill:#ffd700"
   id="path11057" />
				<path
   d="M 183.813,173.887 C 183.76,163.422 183.793,156.937 189.119,143.241 C 197.567,121.515 194.394,102.788 179.792,87.503 C 165.187,102.788 162.011,121.518 170.461,143.241 C 175.786,156.937 175.822,163.42 175.769,173.887 L 183.813,173.887 L 183.813,173.887 z "
   style="fill:#ffd700"
   id="path11059" />
				<path
   d="M 193.196,173.887 L 187.466,173.887 C 187.802,165.405 192.512,145.742 202.508,135.863 C 211.279,127.198 219.882,128.879 224.589,132.954 C 229.984,137.622 232.075,146.916 225.64,155.645 C 221.938,160.665 216.906,164.571 211.051,167.036 C 211.761,165.1 212.934,161.304 212.582,158.061 C 212.204,154.738 210.049,152.763 206.959,152.907 C 201.631,153.157 193.671,160.007 193.196,173.887 z "
   style="fill:#ffd700"
   id="path11061" />
				<path
   d="M 187.924,180.228 C 190.45,189.519 196.104,192.282 199.784,193.855 C 195.407,195.239 191.291,194.665 185.224,191.885 L 184.245,191.436 L 184.428,192.498 C 184.44,192.573 185.726,200.186 184.223,204.913 C 183.338,207.692 181.32,210.404 179.792,212.191 C 178.264,210.404 176.244,207.692 175.359,204.913 C 173.854,200.186 175.139,192.573 175.152,192.498 L 175.337,191.436 L 174.358,191.885 C 168.291,194.664 164.175,195.236 159.798,193.855 C 163.479,192.282 169.132,189.519 171.658,180.228 L 187.924,180.228 z "
   style="fill:#ffd700"
   id="path11063" />
			</g>
			<g
   id="_x32_">
				<path
   d="M 85.801,166.649 C 87.384,164.932 90.176,161.559 91.314,157.989 C 92.582,154.001 92.015,148.341 91.708,146.051 C 98.112,148.828 102.647,149.153 107.582,147.168 C 107.582,147.168 108.85,146.658 108.854,146.66 L 106.724,145.748 C 103.307,144.303 97.654,141.891 95.114,132.959 L 104.453,132.959 L 104.453,126.619 L 100.343,126.619 C 100.795,114.039 107.932,107.008 113.021,106.77 C 115.532,106.654 117.149,108.163 117.462,110.914 C 117.911,115.078 115.539,120.525 115.515,120.58 L 114.968,121.816 L 116.236,121.337 C 122.827,118.843 128.471,114.593 132.562,109.046 C 139.408,99.763 137.127,89.833 131.338,84.82 C 125.865,80.086 116.441,79.165 107.715,87.783 C 97.483,97.895 92.671,117.983 92.335,126.614 L 90.956,126.614 C 90.903,116.28 90.939,109.882 96.187,96.381 C 104.974,73.793 101.452,54.361 85.801,38.578 C 70.145,54.363 66.625,73.795 75.411,96.386 C 80.659,109.884 80.692,116.282 80.641,126.616 L 79.26,126.616 C 78.928,117.987 74.114,97.898 63.883,87.788 C 55.158,79.17 45.732,80.088 40.259,84.825 C 34.469,89.838 32.19,99.767 39.037,109.051 C 43.128,114.594 48.772,118.848 55.359,121.341 L 56.629,121.821 L 56.082,120.581 C 56.058,120.528 53.686,115.081 54.137,110.915 C 54.45,108.166 56.068,106.655 58.576,106.774 C 63.667,107.012 70.803,114.04 71.256,126.62 L 67.146,126.62 L 67.146,132.964 L 76.483,132.964 C 73.942,141.894 68.29,144.304 64.872,145.749 L 62.743,146.661 C 62.749,146.659 64.017,147.169 64.017,147.169 C 68.95,149.153 73.487,148.831 79.891,146.054 C 79.582,148.343 79.016,154.005 80.286,157.99 C 81.42,161.559 84.213,164.932 85.801,166.649 z "
   id="path11053_1_" />
				<rect
   width="35.033001"
   height="4.066"
   x="68.281998"
   y="127.756"
   style="fill:#ffd700"
   id="rect11055_1_" /> 
				<path
   d="M 72.393,126.62 L 78.123,126.62 C 77.787,118.138 73.078,98.475 63.084,88.595 C 54.313,79.93 45.706,81.611 41.002,85.686 C 35.607,90.354 33.513,99.648 39.949,108.377 C 43.654,113.397 48.683,117.303 54.537,119.768 C 53.828,117.832 52.657,114.036 53.008,110.793 C 53.385,107.469 55.539,105.495 58.631,105.638 C 63.96,105.889 71.919,112.739 72.393,126.62 z "
   style="fill:#ffd700"
   id="path11057_1_" />
				<path
   d="M 89.822,126.62 C 89.769,116.155 89.802,109.669 95.128,95.973 C 103.576,74.247 100.403,55.52 85.802,40.235 C 71.196,55.52 68.02,74.249 76.469,95.973 C 81.795,109.669 81.83,116.151 81.778,126.62 L 89.822,126.62 L 89.822,126.62 z "
   style="fill:#ffd700"
   id="path11059_1_" />
				<path
   d="M 99.205,126.62 L 93.475,126.62 C 93.811,118.138 98.521,98.475 108.517,88.595 C 117.288,79.93 125.891,81.611 130.598,85.686 C 135.993,90.354 138.084,99.648 131.649,108.377 C 127.947,113.397 122.915,117.303 117.06,119.768 C 117.77,117.832 118.943,114.036 118.591,110.793 C 118.213,107.469 116.058,105.495 112.968,105.638 C 107.639,105.889 99.679,112.739 99.205,126.62 z "
   style="fill:#ffd700"
   id="path11061_1_" />
				<path
   d="M 93.932,132.959 C 96.458,142.25 102.112,145.014 105.792,146.586 C 101.415,147.971 97.299,147.397 91.232,144.617 L 90.253,144.168 L 90.436,145.23 C 90.448,145.304 91.734,152.918 90.231,157.644 C 89.346,160.423 87.328,163.136 85.8,164.923 C 84.271,163.136 82.251,160.423 81.366,157.644 C 79.862,152.917 81.147,145.304 81.159,145.23 L 81.345,144.168 L 80.365,144.617 C 74.299,147.396 70.182,147.967 65.805,146.586 C 69.486,145.014 75.14,142.25 77.665,132.959 L 93.932,132.959 z "
   style="fill:#ffd700"
   id="path11063_1_" />
			</g>
			<g
   id="_x31_">
				<path
   d="M 273.784,166.649 C 275.367,164.932 278.159,161.559 279.297,157.989 C 280.565,154.001 279.998,148.341 279.691,146.051 C 286.095,148.828 290.63,149.153 295.565,147.168 C 295.565,147.168 296.833,146.658 296.837,146.66 L 294.707,145.748 C 291.29,144.303 285.637,141.891 283.097,132.959 L 292.436,132.959 L 292.436,126.619 L 288.326,126.619 C 288.778,114.039 295.915,107.008 301.004,106.77 C 303.515,106.654 305.132,108.163 305.445,110.914 C 305.894,115.078 303.522,120.525 303.498,120.58 L 302.951,121.816 L 304.219,121.337 C 310.81,118.843 316.454,114.593 320.545,109.046 C 327.391,99.763 325.11,89.833 319.321,84.82 C 313.848,80.086 304.424,79.165 295.698,87.783 C 285.466,97.895 280.654,117.983 280.318,126.614 L 278.939,126.614 C 278.886,116.28 278.922,109.882 284.17,96.381 C 292.957,73.793 289.435,54.361 273.784,38.578 C 258.128,54.361 254.608,73.793 263.393,96.384 C 268.641,109.882 268.674,116.28 268.623,126.614 L 267.242,126.614 C 266.91,117.985 262.096,97.896 251.865,87.786 C 243.14,79.168 233.714,80.086 228.241,84.823 C 222.451,89.836 220.173,99.765 227.019,109.049 C 231.11,114.592 236.754,118.846 243.341,121.339 L 244.611,121.819 L 244.064,120.579 C 244.04,120.526 241.668,115.079 242.119,110.913 C 242.432,108.164 244.05,106.653 246.558,106.772 C 251.649,107.01 258.785,114.038 259.238,126.618 L 255.128,126.618 L 255.128,132.962 L 264.465,132.962 C 261.924,141.892 256.272,144.302 252.854,145.747 L 250.725,146.659 C 250.731,146.657 251.999,147.167 251.999,147.167 C 256.932,149.151 261.469,148.829 267.873,146.052 C 267.564,148.341 266.998,154.003 268.268,157.988 C 269.403,161.559 272.196,164.932 273.784,166.649 z "
   id="path11053_2_" />
				<rect
   width="35.033001"
   height="4.066"
   x="256.26501"
   y="127.756"
   style="fill:#ffd700"
   id="rect11055_2_" /> 
				<path
   d="M 260.376,126.62 L 266.106,126.62 C 265.77,118.138 261.061,98.475 251.067,88.595 C 242.296,79.93 233.689,81.611 228.985,85.686 C 223.59,90.354 221.497,99.648 227.932,108.377 C 231.637,113.397 236.666,117.303 242.52,119.768 C 241.811,117.832 240.64,114.036 240.991,110.793 C 241.368,107.469 243.522,105.495 246.614,105.638 C 251.943,105.889 259.902,112.739 260.376,126.62 z "
   style="fill:#ffd700"
   id="path11057_2_" />
				<path
   d="M 277.805,126.62 C 277.752,116.155 277.785,109.669 283.111,95.973 C 291.559,74.247 288.386,55.52 273.785,40.235 C 259.18,55.52 256.004,74.25 264.453,95.973 C 269.779,109.669 269.814,116.151 269.762,126.62 L 277.805,126.62 z "
   style="fill:#ffd700"
   id="path11059_2_" />
				<path
   d="M 287.188,126.62 L 281.458,126.62 C 281.794,118.138 286.504,98.475 296.5,88.595 C 305.271,79.93 313.874,81.611 318.581,85.686 C 323.976,90.354 326.067,99.648 319.632,108.377 C 315.93,113.397 310.898,117.303 305.043,119.768 C 305.753,117.832 306.926,114.036 306.574,110.793 C 306.196,107.469 304.041,105.495 300.951,105.638 C 295.622,105.889 287.662,112.739 287.188,126.62 z "
   style="fill:#ffd700"
   id="path11061_2_" />
				<path
   d="M 281.915,132.959 C 284.441,142.25 290.095,145.014 293.775,146.586 C 289.398,147.971 285.282,147.397 279.215,144.617 L 278.236,144.168 L 278.419,145.23 C 278.431,145.304 279.717,152.918 278.214,157.644 C 277.329,160.423 275.311,163.136 273.783,164.923 C 272.254,163.136 270.234,160.423 269.349,157.644 C 267.845,152.917 269.13,145.304 269.142,145.23 L 269.328,144.168 L 268.348,144.617 C 262.282,147.396 258.165,147.967 253.788,146.586 C 257.469,145.014 263.123,142.25 265.648,132.959 L 281.915,132.959 z "
   style="fill:#ffd700"
   id="path11063_2_" />
			</g>
		</g>
	</svg>