<?xml version="1.0" encoding="UTF-8"?>
<svg xmlns="http://www.w3.org/2000/svg" xmlns:xlink="http://www.w3.org/1999/xlink" width="325.458" height="215.694">
	<rect width="325.458" height="215.694" fill="#0d3896"/>
	<path id="fleur" d="M 62.763,20.398 c 0,0 16.728,14.827 9.185,36.681 -7.545,21.852 -6.244,25.233 -6.244,25.233 l 1.823,0 c 0,0 0.257,-26.011 18.989,-28.615 18.729,-2.602 12.748,27.837 -5.722,27.317 0,0 5.722,-12.487 -0.523,-9.367 -6.244,3.122 -7.805,10.923 -7.805,10.923 l 6.474,0.065 0.03,5.402 -8.844,0 c 0,0 0.262,5.203 9.107,11.965 0,0 -1.046,2.086 -11.45,-3.124 0,0 0.183,10.406 -5.021,16.392 -5.203,-5.986 -5.019,-16.392 -5.019,-16.392 -10.404,5.209 -11.447,3.124 -11.447,3.124 8.844,-6.762 9.105,-11.965 9.105,-11.965 l -8.847,0 0.035,-5.402 6.469,-0.065 c 0,0 -1.56,-7.801 -7.803,-10.923 -6.244,-3.12 -0.521,9.367 -0.521,9.367 -18.47,0.521 -24.451,-29.918 -5.724,-27.317 18.731,2.604 18.991,28.615 18.991,28.615 l 1.821,0 c 0,0 1.299,-3.381 -6.245,-25.233 C 51.597007,51.33941 51.290655,46.084516 51.915408,41.45562 53.669458,28.459581 62.763,20.398 62.763,20.398 z" fill="#ffdb00"/>
	<use xlink:href="#fleur" x="200"/>
	<use xlink:href="#fleur" x="100" y="95"/>
	<g fill="#fff">
		<path d="M153.583,100.5c0,0-1,15.499-15,21.333s-22.333,3.168-30.5,17.334l-14.333-6.5 c0,0,10.833-14.668,25.667-16.334s24.667-4.667,28.667-16.167L153.583,100.5z"/>
		<path d="M171.75,100.5c0,0,1,15.499,15,21.333c14,5.834,22.334,3.168,30.5,17.334l14.334-6.5 c0,0-10.833-14.668-25.666-16.334c-14.834-1.666-24.668-4.667-28.667-16.167L171.75,100.5z"/>
		<path d="M184.75,99.333 c0,3.267-9.516,5.833-21.666,5.833s-22-2.649-22-5.917c0-3.268,9.85-5.917,22-5.917S184.75,96.066,184.75,99.333z" stroke="#0d3896" stroke-width="1.5"/>
		<path d="M183.103,90.583c0,0,19.334-3.917,8.668-26.667 c-10.668-22.75-21.854-42.25-29.021-47.583c-7.167,5.333-17.667,24.833-28.333,47.583s8.667,26.667,8.667,26.667H183.103z"/>
		<path d="M162.813,93.333c12.15,0,21.729,2.649,21.729,5.917l3.542-10.814 c-4.645-2.862-11.135-4.182-17.218-4.74v-57l-0.021-0.408c-2.564-3.834-5.221-7.376-7.923-10.372h-0.218 c-2.702,2.995-5.359,6.538-7.923,10.372l-0.021,0.408v57c-6.083,0.558-12.574,1.878-17.218,4.74l3.542,10.814 C141.083,95.982,150.662,93.333,162.813,93.333z"/>
	</g>
	<path d="M162.813,93.333 c12.15,0,21.729,2.649,21.729,5.917l3.542-10.814c-4.645-2.862-11.135-4.182-17.218-4.74v-57l-0.021-0.408 c-2.564-3.834-5.221-7.376-7.923-10.372h-0.218c-2.702,2.995-5.359,6.538-7.923,10.372l-0.021,0.408v57 c-6.083,0.558-12.574,1.878-17.218,4.74l3.542,10.814C141.083,95.982,150.662,93.333,162.813,93.333z" fill="none" stroke="#0d3896" stroke-width="1.5"/>
	<g fill="#0d3896">
		<path d="M166.066,88.083c0,1.772-1.559,3.208-3.483,3.208s-3.483-1.436-3.483-3.208 s1.56-3.208,3.483-3.208S166.066,86.311,166.066,88.083z"/>
		<path d="M164.672,78.083c0,1.063-0.935,1.925-2.089,1.925s-2.09-0.862-2.09-1.925 s0.936-1.925,2.09-1.925S164.672,77.02,164.672,78.083z"/>
		<path d="M164.672,58.083c0,1.063-0.935,1.925-2.089,1.925s-2.09-0.862-2.09-1.925 s0.936-1.925,2.09-1.925S164.672,57.02,164.672,58.083z"/>
		<path d="M164.672,38.083c0,1.063-0.935,1.925-2.089,1.925s-2.09-0.862-2.09-1.925 s0.936-1.925,2.09-1.925S164.672,37.02,164.672,38.083z"/>
		<path d="M154.672,89.083c0,1.063-0.935,1.925-2.089,1.925s-2.09-0.862-2.09-1.925 s0.936-1.925,2.09-1.925S154.672,88.02,154.672,89.083z"/>
		<path d="M174.672,89.083c0,1.063-0.935,1.925-2.089,1.925s-2.09-0.862-2.09-1.925 s0.936-1.925,2.09-1.925S174.672,88.02,174.672,89.083z"/>
		<path d="M166.066,68.083c0,1.772-1.559,3.208-3.483,3.208s-3.483-1.436-3.483-3.208 s1.56-3.208,3.483-3.208S166.066,66.311,166.066,68.083z"/>
		<path d="M166.066,48.083c0,1.772-1.559,3.208-3.483,3.208s-3.483-1.436-3.483-3.208 s1.56-3.208,3.483-3.208S166.066,46.311,166.066,48.083z"/>
		<path d="M166.066,28.083c0,1.772-1.559,3.208-3.483,3.208s-3.483-1.436-3.483-3.208 s1.56-3.208,3.483-3.208S166.066,26.311,166.066,28.083z"/>
		<path d="M147.066,91.083c0,1.772-1.559,3.208-3.483,3.208s-3.483-1.436-3.483-3.208 s1.56-3.208,3.483-3.208S147.066,89.311,147.066,91.083z"/>
		<path d="M185.066,91.083c0,1.772-1.559,3.208-3.482,3.208s-3.484-1.436-3.484-3.208 s1.56-3.208,3.484-3.208S185.066,89.311,185.066,91.083z"/>
	</g>
</svg>